<svg width="23" height="30" xmlns="http://www.w3.org/2000/svg"><path d="M11.5 0C17.82 0 23 4.904 23 11.002c0 1.813-.52 3.729-1.452 5.763-.826 1.8-1.963 3.66-3.334 5.553a54.107 54.107 0 0 1-4.24 5.139L11.5 30l-2.213-2.27c-.225-.231-.562-.59-.982-1.06l-.448-.507a54.107 54.107 0 0 1-3.071-3.845c-1.371-1.893-2.508-3.753-3.334-5.553C.52 14.731 0 12.815 0 11.002 0 4.904 5.18 0 11.5 0zm0 3.017c-4.652 0-8.433 3.58-8.433 7.985 0 5.085 6.08 12.089 7.915 14.087l.518.553s8.433-8.651 8.433-14.64c0-4.405-3.78-7.985-8.433-7.985zm0 3.016c2.965 0 5.367 2.363 5.367 5.28 0 2.916-2.402 5.279-5.367 5.279s-5.367-2.363-5.367-5.28c0-2.916 2.402-5.279 5.367-5.279zm0 3.017c-1.27 0-2.3 1.013-2.3 2.262 0 1.25 1.03 2.263 2.3 2.263 1.27 0 2.3-1.013 2.3-2.263S12.77 9.05 11.5 9.05z" fill="#FFD800"/></svg>