<?xml version="1.0" encoding="UTF-8" standalone="no"?>
<svg
   width="512"
   height="512"
   version="1.1"
   id="svg4"
   sodipodi:docname="chat.svg"
   inkscape:version="1.1 (ce6663b3b7, 2021-05-25)"
   xmlns:inkscape="http://www.inkscape.org/namespaces/inkscape"
   xmlns:sodipodi="http://sodipodi.sourceforge.net/DTD/sodipodi-0.dtd"
   xmlns="http://www.w3.org/2000/svg"
   xmlns:svg="http://www.w3.org/2000/svg">
  <defs
     id="defs8" />
  <sodipodi:namedview
     id="namedview6"
     pagecolor="#ffffff"
     bordercolor="#666666"
     borderopacity="1.0"
     inkscape:pageshadow="2"
     inkscape:pageopacity="0.0"
     inkscape:pagecheckerboard="0"
     showgrid="false"
     inkscape:zoom="0.82421875"
     inkscape:cx="267.52607"
     inkscape:cy="291.79147"
     inkscape:window-width="1848"
     inkscape:window-height="1016"
     inkscape:window-x="1992"
     inkscape:window-y="27"
     inkscape:window-maximized="1"
     inkscape:current-layer="svg4" />
  <path
     style="line-height:normal;font-variant-ligatures:normal;font-variant-position:normal;font-variant-caps:normal;font-variant-numeric:normal;font-variant-alternates:normal;font-variant-east-asian:normal;font-feature-settings:normal;font-variation-settings:normal;text-indent:0;text-align:start;text-decoration-line:none;text-decoration-style:solid;text-decoration-color:#fff;text-transform:none;text-orientation:mixed;white-space:normal;shape-padding:0;shape-margin:0;inline-size:0;isolation:auto;mix-blend-mode:normal;solid-color:#fff;solid-opacity:1;fill:#ffffff"
     d="M244.208.496c37.877-.09 75.223 8.779 109.04 25.84 82.575 41.269 134.844 125.767 134.88 218.08.078 32.778-9.529 64.314-22.366 94.358l46.52 139.615a26.947 26.947 0 0 1-34.1 34.102L338.564 465.97c-30.059 12.844-61.614 22.451-94.41 22.366-92.253-.057-176.694-52.277-217.975-134.775v-.053C9.092 319.66.19 282.278.288 244.362v-12.734a26.947 26.947 0 0 1 .054-1.474C7.163 106.498 106.29 7.372 229.946.55a26.947 26.947 0 0 1 1.474-.053h12.735zm.052 53.889a26.947 26.947 0 0 1-.052 0h-11.473C136.24 59.82 59.613 136.448 54.177 232.944v11.472a26.947 26.947 0 0 1 0 .052 186.993 186.993 0 0 0 20.103 84.78 26.947 26.947 0 0 1 .053.105c32.196 64.422 97.855 105.066 169.875 105.094a26.947 26.947 0 0 1 .052 0 186.978 186.978 0 0 0 84.78-20.103 26.947 26.947 0 0 1 20.682-1.473l94.358 31.417-31.418-94.358a26.947 26.947 0 0 1 1.474-20.682 186.977 186.977 0 0 0 20.103-84.78 26.947 26.947 0 0 1 0-.052c-.028-72.02-40.672-137.679-105.094-169.876a26.947 26.947 0 0 1-.105-.052 186.982 186.982 0 0 0-84.78-20.103z"
     color="#fff"
     font-weight="400"
     font-family="sans-serif"
     overflow="visible"
     id="path2" />
</svg>
