<?xml version="1.0" encoding="UTF-8" standalone="no"?>
<!-- Generator: Adobe Illustrator 21.0.0, SVG Export Plug-In . SVG Version: 6.00 Build 0)  -->

<svg
   xmlns:dc="http://purl.org/dc/elements/1.1/"
   xmlns:cc="http://creativecommons.org/ns#"
   xmlns:rdf="http://www.w3.org/1999/02/22-rdf-syntax-ns#"
   xmlns:svg="http://www.w3.org/2000/svg"
   xmlns="http://www.w3.org/2000/svg"
   xmlns:sodipodi="http://sodipodi.sourceforge.net/DTD/sodipodi-0.dtd"
   xmlns:inkscape="http://www.inkscape.org/namespaces/inkscape"
   version="1.1"
   id="Vrstva_1"
   x="0px"
   y="0px"
   viewBox="0 0 512 512"
   xml:space="preserve"
   inkscape:version="0.91 r13725"
   sodipodi:docname="ico_kose_na_plenky.svg"
   width="512"
   height="512"><metadata
   id="metadata111"><rdf:RDF><cc:Work
       rdf:about=""><dc:format>image/svg+xml</dc:format><dc:type
         rdf:resource="http://purl.org/dc/dcmitype/StillImage" /><dc:title /></cc:Work></rdf:RDF></metadata><defs
   id="defs109" /><sodipodi:namedview
   pagecolor="#ffffff"
   bordercolor="#666666"
   borderopacity="1"
   objecttolerance="10"
   gridtolerance="10"
   guidetolerance="10"
   inkscape:pageopacity="0"
   inkscape:pageshadow="2"
   inkscape:window-width="1536"
   inkscape:window-height="801"
   id="namedview107"
   showgrid="false"
   inkscape:zoom="0.7375"
   inkscape:cx="-3.6290359"
   inkscape:cy="184.16494"
   inkscape:window-x="-8"
   inkscape:window-y="-8"
   inkscape:window-maximized="1"
   inkscape:current-layer="Vrstva_1" />
<style
   type="text/css"
   id="style3">
	.st0{fill:#CD1961;}
</style>
<g
   id="g5"
   transform="matrix(11.224523,0,0,11.211759,23.120176,31.322034)">
	<path
   class="st0"
   d="m 35.1,7.2 c 0,-1.5 -1.2,-2.7 -2.7,-2.7 l -7.1,0 0,-2.2 C 25.3,1 24.3,0 23,0 l -6,0 c -1.2,0 -2.3,1 -2.3,2.3 l 0,2.3 -7.1,0 C 6.1,4.6 4.9,5.8 4.9,7.3 l 0,3.4 1.5,0 0,26.6 c 0,1.6 1.3,2.8 2.8,2.8 l 21.5,0 c 1.6,0 2.8,-1.3 2.8,-2.8 l 0,-26.7 1.5,0 0.1,-3.4 0,0 z M 16.2,2.3 c 0,-0.4 0.3,-0.8 0.8,-0.8 l 6,0 c 0.4,0 0.8,0.3 0.8,0.8 l 0,2.3 -7.5,0 0,-2.3 z m 15.9,34.9 c 0,0.7 -0.6,1.3 -1.3,1.3 l -21.6,0 c -0.7,0 -1.3,-0.6 -1.3,-1.3 l 0,-26.6 24.2,0 0,26.6 z M 33.6,9.1 6.4,9.1 6.4,7.2 C 6.4,6.6 6.9,6 7.6,6 l 7.1,0 10.6,0 7.1,0 c 0.6,0 1.2,0.5 1.2,1.2 l 0,1.9 z"
   id="path7"
   inkscape:connector-curvature="0"
   style="fill:#cd1961" />
	<circle
   class="st0"
   cx="10.9"
   cy="15.8"
   r="0.80000001"
   id="circle9"
   style="fill:#cd1961" />
	<circle
   class="st0"
   cx="10.9"
   cy="20.4"
   r="0.80000001"
   id="circle11"
   style="fill:#cd1961" />
	<circle
   class="st0"
   cx="13.2"
   cy="13.6"
   r="0.80000001"
   id="circle13"
   style="fill:#cd1961" />
	<circle
   class="st0"
   cx="17.700001"
   cy="13.6"
   r="0.80000001"
   id="circle15"
   style="fill:#cd1961" />
	<circle
   class="st0"
   cx="13.2"
   cy="18.1"
   r="0.80000001"
   id="circle17"
   style="fill:#cd1961" />
	<circle
   class="st0"
   cx="17.700001"
   cy="18.1"
   r="0.80000001"
   id="circle19"
   style="fill:#cd1961" />
	<circle
   class="st0"
   cx="15.5"
   cy="15.8"
   r="0.80000001"
   id="circle21"
   style="fill:#cd1961" />
	<circle
   class="st0"
   cx="20"
   cy="15.8"
   r="0.80000001"
   id="circle23"
   style="fill:#cd1961" />
	<circle
   class="st0"
   cx="15.5"
   cy="20.4"
   r="0.80000001"
   id="circle25"
   style="fill:#cd1961" />
	<circle
   class="st0"
   cx="20"
   cy="20.4"
   r="0.80000001"
   id="circle27"
   style="fill:#cd1961" />
	<circle
   class="st0"
   cx="22.299999"
   cy="13.6"
   r="0.80000001"
   id="circle29"
   style="fill:#cd1961" />
	<circle
   class="st0"
   cx="26.799999"
   cy="13.6"
   r="0.80000001"
   id="circle31"
   style="fill:#cd1961" />
	<circle
   class="st0"
   cx="22.299999"
   cy="18.1"
   r="0.80000001"
   id="circle33"
   style="fill:#cd1961" />
	<circle
   class="st0"
   cx="26.799999"
   cy="18.1"
   r="0.80000001"
   id="circle35"
   style="fill:#cd1961" />
	<circle
   class="st0"
   cx="24.5"
   cy="15.8"
   r="0.80000001"
   id="circle37"
   style="fill:#cd1961" />
	<circle
   class="st0"
   cx="29.1"
   cy="15.8"
   r="0.80000001"
   id="circle39"
   style="fill:#cd1961" />
	<circle
   class="st0"
   cx="24.5"
   cy="20.4"
   r="0.80000001"
   id="circle41"
   style="fill:#cd1961" />
	<circle
   class="st0"
   cx="29.1"
   cy="20.4"
   r="0.80000001"
   id="circle43"
   style="fill:#cd1961" />
	<circle
   class="st0"
   cx="10.9"
   cy="24.9"
   r="0.80000001"
   id="circle45"
   style="fill:#cd1961" />
	<circle
   class="st0"
   cx="10.9"
   cy="29.4"
   r="0.80000001"
   id="circle47"
   style="fill:#cd1961" />
	<circle
   class="st0"
   cx="13.2"
   cy="22.6"
   r="0.80000001"
   id="circle49"
   style="fill:#cd1961" />
	<circle
   class="st0"
   cx="17.700001"
   cy="22.6"
   r="0.80000001"
   id="circle51"
   style="fill:#cd1961" />
	<circle
   class="st0"
   cx="13.2"
   cy="27.200001"
   r="0.80000001"
   id="circle53"
   style="fill:#cd1961" />
	<circle
   class="st0"
   cx="17.700001"
   cy="27.200001"
   r="0.80000001"
   id="circle55"
   style="fill:#cd1961" />
	<circle
   class="st0"
   cx="15.5"
   cy="24.9"
   r="0.80000001"
   id="circle57"
   style="fill:#cd1961" />
	<circle
   class="st0"
   cx="20"
   cy="24.9"
   r="0.80000001"
   id="circle59"
   style="fill:#cd1961" />
	<circle
   class="st0"
   cx="15.5"
   cy="29.4"
   r="0.80000001"
   id="circle61"
   style="fill:#cd1961" />
	<circle
   class="st0"
   cx="20"
   cy="29.4"
   r="0.80000001"
   id="circle63"
   style="fill:#cd1961" />
	<circle
   class="st0"
   cx="22.299999"
   cy="22.6"
   r="0.80000001"
   id="circle65"
   style="fill:#cd1961" />
	<circle
   class="st0"
   cx="26.799999"
   cy="22.6"
   r="0.80000001"
   id="circle67"
   style="fill:#cd1961" />
	<circle
   class="st0"
   cx="22.299999"
   cy="27.200001"
   r="0.80000001"
   id="circle69"
   style="fill:#cd1961" />
	<circle
   class="st0"
   cx="26.799999"
   cy="27.200001"
   r="0.80000001"
   id="circle71"
   style="fill:#cd1961" />
	<circle
   class="st0"
   cx="24.5"
   cy="24.9"
   r="0.80000001"
   id="circle73"
   style="fill:#cd1961" />
	<circle
   class="st0"
   cx="29.1"
   cy="24.9"
   r="0.80000001"
   id="circle75"
   style="fill:#cd1961" />
	<circle
   class="st0"
   cx="24.5"
   cy="29.4"
   r="0.80000001"
   id="circle77"
   style="fill:#cd1961" />
	<circle
   class="st0"
   cx="29.1"
   cy="29.4"
   r="0.80000001"
   id="circle79"
   style="fill:#cd1961" />
	<circle
   class="st0"
   cx="10.9"
   cy="34"
   r="0.80000001"
   id="circle81"
   style="fill:#cd1961" />
	<circle
   class="st0"
   cx="13.2"
   cy="31.700001"
   r="0.80000001"
   id="circle83"
   style="fill:#cd1961" />
	<circle
   class="st0"
   cx="17.700001"
   cy="31.700001"
   r="0.80000001"
   id="circle85"
   style="fill:#cd1961" />
	<circle
   class="st0"
   cx="13.2"
   cy="36.200001"
   r="0.80000001"
   id="circle87"
   style="fill:#cd1961" />
	<circle
   class="st0"
   cx="17.700001"
   cy="36.200001"
   r="0.80000001"
   id="circle89"
   style="fill:#cd1961" />
	<circle
   class="st0"
   cx="15.5"
   cy="34"
   r="0.80000001"
   id="circle91"
   style="fill:#cd1961" />
	<circle
   class="st0"
   cx="20"
   cy="34"
   r="0.80000001"
   id="circle93"
   style="fill:#cd1961" />
	<circle
   class="st0"
   cx="22.299999"
   cy="31.700001"
   r="0.80000001"
   id="circle95"
   style="fill:#cd1961" />
	<circle
   class="st0"
   cx="26.799999"
   cy="31.700001"
   r="0.80000001"
   id="circle97"
   style="fill:#cd1961" />
	<circle
   class="st0"
   cx="22.299999"
   cy="36.200001"
   r="0.80000001"
   id="circle99"
   style="fill:#cd1961" />
	<circle
   class="st0"
   cx="26.799999"
   cy="36.200001"
   r="0.80000001"
   id="circle101"
   style="fill:#cd1961" />
	<circle
   class="st0"
   cx="24.5"
   cy="34"
   r="0.80000001"
   id="circle103"
   style="fill:#cd1961" />
	<circle
   class="st0"
   cx="29.1"
   cy="34"
   r="0.80000001"
   id="circle105"
   style="fill:#cd1961" />
</g>
</svg>