<svg xmlns="http://www.w3.org/2000/svg" width="512" height="512"><path d="M40.827 188.997a121.731 121.731 0 0 0 10.888 25.853l-13.141 16.574c-4.291 5.418-3.808 13.142 1.02 18.023l22.634 22.635c4.881 4.88 12.605 5.31 18.023 1.018l16.466-13.034a119.639 119.639 0 0 0 26.873 11.372l2.467 21.187c.805 6.865 6.598 12.014 13.463 12.014h32.022c6.866 0 12.659-5.15 13.463-12.014l2.36-20.436a121.015 121.015 0 0 0 28.804-11.64l15.93 12.605c5.418 4.291 13.142 3.808 18.023-1.019l22.635-22.635c4.88-4.881 5.31-12.605 1.019-18.023l-12.39-15.715c5.149-8.905 9.172-18.398 11.854-28.321l19.095-2.2c6.866-.804 12.014-6.597 12.014-13.462v-32.022c0-6.866-5.149-12.659-12.014-13.463l-18.827-2.2c-2.575-9.815-6.437-19.202-11.371-27.998l11.586-14.644c4.29-5.417 3.808-13.14-1.02-18.022l-22.58-22.581c-4.882-4.881-12.606-5.31-18.023-1.02l-14.214 11.264a119.374 119.374 0 0 0-29.447-12.336l-2.146-18.398c-.804-6.866-6.597-12.015-13.463-12.015h-32.022c-6.865 0-12.658 5.15-13.463 12.015L125.2 38.757a118.875 118.875 0 0 0-30.198 12.766L80.252 39.83c-5.418-4.291-13.142-3.809-18.023 1.019L39.594 63.484c-4.881 4.88-5.31 12.605-1.02 18.022l12.337 15.609a116.682 116.682 0 0 0-11.156 28.267l-19.74 2.253c-6.865.804-12.014 6.597-12.014 13.463v32.022c0 6.865 5.15 12.658 12.015 13.463zm116.018-86.625c29.18 0 52.941 23.761 52.941 52.94 0 29.18-23.762 52.94-52.94 52.94-29.179 0-52.941-23.76-52.941-52.94 0-29.179 23.761-52.94 52.94-52.94z"/><path d="M473.415 196.882l-16.896-14.268c-5.202-4.398-12.873-4.184-17.807.483l-9.333 8.743c-7.884-3.809-16.251-6.49-24.888-8.046l-2.627-12.873c-1.34-6.651-7.51-11.264-14.269-10.728l-22.045 1.878c-6.758.59-12.068 6.114-12.283 12.926l-.428 13.088c-8.476 3.057-16.468 7.241-23.763 12.498l-11.156-7.402c-5.686-3.755-13.249-2.682-17.646 2.52l-14.268 17.004c-4.399 5.203-4.184 12.873.482 17.808l9.762 10.405a99.975 99.975 0 0 0-7.187 23.815l-13.946 2.843c-6.651 1.34-11.264 7.509-10.728 14.268l1.878 22.045c.59 6.758 6.114 12.069 12.926 12.283l15.073.482c2.736 7.188 6.33 14 10.673 20.383l-8.42 12.712c-3.755 5.686-2.682 13.248 2.52 17.647l16.896 14.267c5.204 4.399 12.873 4.184 17.809-.482l11.049-10.352c7.241 3.379 14.857 5.9 22.688 7.402l3.058 15.125c1.341 6.652 7.51 11.264 14.268 10.728l22.045-1.877c6.758-.59 12.068-6.114 12.283-12.927l.483-14.805a99.145 99.145 0 0 0 22.688-11.478l12.176 8.046c5.686 3.755 13.248 2.682 17.647-2.52l14.268-16.897c4.398-5.203 4.183-12.873-.483-17.808l-9.816-10.405c3.594-7.616 6.223-15.662 7.724-23.923l13.41-2.735c6.65-1.341 11.263-7.51 10.727-14.268l-1.878-22.046c-.59-6.758-6.114-12.068-12.926-12.283l-13.463-.429a97.407 97.407 0 0 0-11.21-22.099l7.347-11.049a13.333 13.333 0 0 0-2.414-17.7zm-83.084 127.443c-23.815 2.038-44.842-15.716-46.826-39.531-2.039-23.815 15.716-44.842 39.53-46.826 23.816-2.039 44.843 15.716 46.827 39.53 2.039 23.816-15.716 44.843-39.53 46.827zm-272.373 59.324c-6.758.697-11.961 6.382-12.015 13.194l-.16 13.57c-.108 6.813 4.934 12.606 11.692 13.464l9.977 1.287a77.392 77.392 0 0 0 7.08 17.326l-6.436 7.938c-4.291 5.31-3.97 12.927.804 17.808l9.494 9.708a13.392 13.392 0 0 0 17.808 1.234l7.991-6.168c5.632 3.325 11.587 5.954 17.808 7.777l1.073 10.299c.697 6.758 6.383 11.96 13.195 12.015l13.57.16c6.812.108 12.605-4.934 13.464-11.693l1.233-9.762c6.76-1.663 13.196-4.183 19.31-7.509l7.51 6.061c5.31 4.291 12.927 3.97 17.808-.804l9.708-9.494a13.392 13.392 0 0 0 1.234-17.808l-5.74-7.456a77.79 77.79 0 0 0 8.153-18.774l8.904-.911c6.759-.698 11.961-6.383 12.015-13.195l.16-13.571c.108-6.812-4.934-12.605-11.692-13.463l-8.69-1.127a80.807 80.807 0 0 0-7.348-18.773l5.418-6.651c4.29-5.31 3.969-12.927-.805-17.808l-9.493-9.708a13.391 13.391 0 0 0-17.808-1.234l-6.491 4.988a78.896 78.896 0 0 0-19.524-8.474l-.859-8.422c-.697-6.758-6.382-11.96-13.194-12.014l-13.57-.161c-6.813-.108-12.606 4.934-13.464 11.693l-1.073 8.368a81.016 81.016 0 0 0-20.221 8.26l-6.705-5.472c-5.31-4.29-12.927-3.968-17.808.805l-9.762 9.548a13.39 13.39 0 0 0-1.234 17.807l5.74 7.403c-3.326 5.9-5.954 12.175-7.67 18.773zm87.59-15.341c19.471.214 35.08 16.252 34.865 35.723-.214 19.47-16.253 35.079-35.723 34.865-19.47-.215-35.079-16.253-34.865-35.724.215-19.47 16.253-35.078 35.724-34.864z"/></svg>