<svg xmlns="http://www.w3.org/2000/svg" width="512" height="512"><path class="fil0" d="M146.63 277.055c11.863 7.638 22.101 18.039 29.577 31.04 25.19 43.554 10.239 99.134-33.315 124.324-43.555 25.19-99.135 10.239-124.324-33.316-7.964-13.976-12.027-29.09-12.19-44.041-6.012-74.92 59.969-170.478 167.716-232.722 121.074-69.881 252.386-72.969 305.854-10.4a92.108 92.108 0 0 1 13.813 18.364c25.19 43.554 10.239 99.134-33.315 124.324-43.554 25.19-99.134 10.238-124.324-33.316-8.126-14.139-12.026-29.578-12.189-44.854-28.927-6.338-68.419 1.3-105.634 22.752-36.241 20.964-62.081 50.217-71.832 77.845z" clip-rule="evenodd" fill-rule="evenodd" image-rendering="optimizeQuality" shape-rendering="geometricPrecision" text-rendering="geometricPrecision"/></svg>