<?xml version="1.0" standalone="no"?>
<!DOCTYPE svg PUBLIC "-//W3C//DTD SVG 20010904//EN"
 "http://www.w3.org/TR/2001/REC-SVG-20010904/DTD/svg10.dtd">
<svg version="1.0" xmlns="http://www.w3.org/2000/svg"
 width="667.000000pt" height="667.000000pt" viewBox="0 0 667.000000 667.000000"
 preserveAspectRatio="xMidYMid meet">
<metadata>
Created by potrace 1.11, written by Peter Selinger 2001-2013
</metadata>
<g transform="translate(0.000000,667.000000) scale(0.100000,-0.100000)"
fill="#000000" stroke="none">
<path d="M3339 6667 c-1 -1 -2 -143 -3 -314 l-1 -313 80 -1 c44 0 96 -2 115
-4 75 -8 231 -26 252 -31 13 -2 39 -7 58 -10 57 -11 62 -12 130 -29 139 -35
168 -44 255 -75 154 -54 350 -144 465 -213 108 -65 284 -186 344 -237 338
-288 547 -550 727 -910 176 -354 261 -699 281 -1141 l3 -56 313 0 313 -1 -6
137 c-5 139 -13 240 -20 276 -2 11 -7 43 -10 70 -18 145 -86 428 -146 602
-214 620 -621 1183 -1139 1572 -145 109 -205 151 -215 151 -3 0 -11 5 -18 11
-54 48 -394 221 -557 283 -69 26 -134 52 -145 57 -24 10 -186 58 -216 64 -12
3 -45 11 -73 19 -44 12 -122 28 -251 51 -33 6 -153 22 -230 30 -56 6 -304 16
-306 12z"/>
<path d="M1668 5003 l-834 -834 834 -835 835 -834 218 219 c121 120 219 221
219 224 0 3 -274 280 -610 615 l-610 610 610 610 c336 335 610 612 610 615 0
2 -99 103 -219 224 l-220 219 -833 -833z"/>
<path d="M3947 3952 c-119 -119 -217 -221 -217 -226 0 -4 272 -280 605 -613
333 -333 605 -608 605 -612 0 -3 -274 -280 -609 -616 l-610 -610 223 -222 222
-222 835 835 834 834 -835 835 -835 835 -218 -218z"/>
<path d="M4 3185 c4 -82 9 -163 11 -180 2 -16 7 -57 11 -90 10 -85 10 -86 18
-130 35 -190 76 -354 122 -493 363 -1084 1248 -1910 2344 -2187 153 -38 152
-38 315 -64 145 -23 210 -30 380 -37 l130 -6 0 315 0 315 -65 1 c-99 1 -256
15 -350 31 -131 22 -172 30 -192 36 -9 3 -25 7 -35 9 -10 2 -65 17 -123 34
-332 96 -667 273 -945 499 -87 71 -310 291 -365 361 -19 24 -47 58 -61 75 -82
100 -211 302 -281 441 -100 198 -196 469 -234 665 -34 174 -42 241 -51 420 -3
69 -8 127 -10 130 -3 3 -144 5 -315 5 l-310 0 6 -150z"/>
</g>
</svg>
