<svg xmlns="http://www.w3.org/2000/svg" viewBox="0 0 511.999 511.999"><path d="M506.278 246.21c-4.53-6.196-112.448-151.71-250.28-151.71S10.242 240.014 5.718 246.204a16.73 16.73 0 0 0 0 19.729c4.524 6.196 112.448 151.71 250.28 151.71s245.75-145.515 250.28-151.705a16.71 16.71 0 0 0 0-19.728zm-250.28 138.005c-101.528 0-189.462-96.581-215.493-128.155 25.997-31.601 113.747-128.132 215.493-128.132 101.523 0 189.451 96.564 215.492 128.155-25.996 31.6-113.746 128.132-215.492 128.132z"/><path d="M256 176c-44.111 0-80 35.889-80 80s35.889 80 80 80 80-35.889 80-80-35.889-80-80-80zm0 133.333c-29.409 0-53.333-23.925-53.333-53.333 0-29.408 23.925-53.333 53.333-53.333 29.408 0 53.333 23.925 53.333 53.333 0 29.408-23.924 53.333-53.333 53.333z" stroke="#000" stroke-width="7"/></svg>