<svg width="701" height="163" xmlns="http://www.w3.org/2000/svg"><title>logo/negative</title><g id="Symbols" fill="none" fill-rule="evenodd"><g id="logo/negative"><path d="M59.994 100.958L20.005 60.97l39.99-39.99L70.6 31.586 41.218 60.97 70.6 90.352l-10.606 10.606zm39.972 40L89.36 130.352l29.38-29.383-29.38-29.383L99.966 60.98l39.988 39.99-39.988 39.99z" id="brackets" fill="#FFF"/><path d="M160.008 80.98h-15c0-35.83-29.15-64.98-64.98-64.98V1c44.1 0 79.98 35.879 79.98 79.98zm-80.029 79.994c-44.1 0-79.978-35.88-79.978-79.98h15c0 35.83 29.149 64.98 64.978 64.98v15z" id="circle" fill="#009AFF"/><path d="M313.298 58.398c7.88 0 14.24 2.521 19.1 7.551 4.85 5.04 7.28 11.95 7.28 20.75v42.17h-14.84V88.21c0-5.13-1.37-9.07-4.12-11.82-2.75-2.74-6.5-4.12-11.26-4.12-5.22 0-9.44 1.63-12.64 4.88-3.21 3.25-4.81 8.22-4.81 14.9v36.82h-14.84V32.71h14.84v36.27c4.49-7.05 11.58-10.58 21.29-10.58zm163.33 0c9.43 0 17.49 3.5 24.18 10.51 6.68 7 10.03 15.54 10.03 25.62 0 10.16-3.35 18.73-10.03 25.68-6.69 6.97-14.75 10.44-24.18 10.44-10.44 0-18.45-3.84-24.04-11.53v42.89h-14.83V60.178h14.83v9.89c5.59-7.78 13.6-11.67 24.04-11.67zm13.19 51.86c4.12-4.17 6.18-9.41 6.18-15.73s-2.06-11.56-6.18-15.73c-4.12-4.17-9.3-6.25-15.52-6.25-6.23 0-11.4 2.08-15.52 6.25-4.13 4.17-6.19 9.41-6.19 15.73s2.06 11.56 6.19 15.73c4.12 4.16 9.29 6.25 15.52 6.25 6.22 0 11.4-2.09 15.52-6.25zm-101.79-51.86c10.17 0 18.75 3.48 25.76 10.44 7 6.96 10.51 15.52 10.51 25.69 0 10.16-3.51 18.73-10.51 25.68-7.01 6.97-15.59 10.44-25.76 10.44-10.07 0-18.64-3.47-25.69-10.44-7.05-6.95-10.57-15.52-10.57-25.68 0-10.17 3.52-18.73 10.57-25.69 7.05-6.96 15.62-10.44 25.69-10.44zm15.25 51.65c4.12-4.12 6.18-9.29 6.18-15.52s-2.06-11.41-6.18-15.53c-4.12-4.12-9.2-6.18-15.25-6.18-6.04 0-11.13 2.06-15.25 6.18-4.12 4.12-6.18 9.3-6.18 15.53 0 6.23 2.06 11.4 6.18 15.52 4.12 4.12 9.21 6.18 15.25 6.18 6.05 0 11.13-2.06 15.25-6.18zm208.13 2.825l17.57-52.694h15.79l-26.37 76.56c-6.6 17.76-17.77 26.19-33.52 25.27v-13.87c4.67.27 8.42-.71 11.26-2.95 2.84-2.25 5.18-5.75 7.01-10.51l.69-4.216-29.13-70.284h16.21l20.49 52.694zm85.11-15.114c2.5 3.1 3.75 7.02 3.75 11.74 0 6.59-2.54 11.77-7.62 15.52-5.09 3.76-11.48 5.63-19.17 5.63-6.78 0-12.59-1.42-17.44-4.25-3.63-2.12-6.53-4.87-8.66-8.23l10.15-10.15a23.77 23.77 0 0 0 5.43 5.94c2.67 2.07 6.17 3.1 10.52 3.1 1.47 0 2.8-.09 3.99-.27 5.12-.79 7.69-3.27 7.69-7.43 0-2.2-1.26-3.98-3.78-5.36-2.52-1.37-5.55-2.6-9.11-3.7-3.55-1.09-7.19-2.22-10.92-3.36-3.72-1.15-6.85-3.21-9.37-6.19-2.52-2.98-3.77-6.75-3.77-11.33 0-6.32 2.4-11.41 7.21-15.25 4.38-3.51 9.73-5.41 16.05-5.72v-.002c.048-.002.1-.001.149-.003.21-.01.42-.017.63-.025.292-.008.584-.014.878-.016.072 0 .14-.006.213-.006 5.68 0 10.74 1.26 15.18 3.78 3.25 1.84 5.95 4.21 8.09 7.11v.002l-7.15 7.15-2.73 2.73a24.847 24.847 0 0 0-3.95-4.24c-.03-.03-.05-.05-.08-.06-2.38-2.01-5.5-3.01-9.36-3.01-2.6 0-4.81.51-6.65 1.55-.17.079-.33.18-.49.28-1.92 1.22-2.88 3.01-2.88 5.36 0 2.26 1.27 4.05 3.8 5.36 2.54 1.31 5.59 2.51 9.14 3.6 3.55 1.1 7.19 2.22 10.92 3.37 3.73 1.15 6.84 3.27 9.34 6.38zm-136.67-6.38c3.73 1.149 6.84 3.27 9.34 6.38 2.5 3.099 3.75 7.019 3.75 11.74 0 6.59-2.54 11.77-7.62 15.52-5.09 3.759-11.48 5.63-19.17 5.63-6.78 0-12.59-1.42-17.44-4.25-3.63-2.121-6.53-4.871-8.66-8.23l10.15-10.15a23.805 23.805 0 0 0 5.43 5.94c2.67 2.069 6.17 3.1 10.52 3.1 1.47 0 2.8-.09 3.99-.27 5.12-.79 7.69-3.27 7.69-7.431 0-2.199-1.26-3.979-3.78-5.359-2.52-1.37-5.55-2.6-9.11-3.7-3.55-1.09-7.19-2.22-10.92-3.36-3.72-1.15-6.85-3.21-9.37-6.19-2.52-2.98-3.77-6.75-3.77-11.33 0-6.32 2.4-11.41 7.21-15.25 4.38-3.51 9.73-5.41 16.05-5.72l.78-.03c.36-.01.72-.02 1.09-.02 5.68 0 10.74 1.26 15.18 3.78 3.25 1.84 5.95 4.21 8.09 7.11l-9.88 9.88a24.887 24.887 0 0 0-3.95-4.24c-.03-.03-.05-.05-.08-.06-2.38-2.011-5.5-3.011-9.36-3.011-2.6 0-4.81.511-6.65 1.551-.17.079-.33.18-.49.28-1.92 1.22-2.88 3.01-2.88 5.36 0 2.26 1.27 4.05 3.8 5.36 2.54 1.31 5.59 2.51 9.14 3.6 3.55 1.099 7.19 2.22 10.92 3.37zm-304.38-8.6c3.16 2.15 5.52 4.83 7.08 8.03 1.56 3.21 2.33 6.96 2.33 11.27 0 8.51-3.02 15.27-9.06 20.26-.09.07-.18.15-.27.22-.18.16-.37.32-.56.47-6.27 5.08-14.49 7.62-24.66 7.62-6.81 0-12.87-1.14-18.16-3.43-.48-.2-.94-.41-1.41-.64-.4-.19-.81-.39-1.21-.61-.95-.5-1.88-1.04-2.78-1.63-5.19-3.4-9.13-7.8-11.81-13.21l11.3-11.3a32.96 32.96 0 0 0 5.97 8.41 19.441 19.441 0 0 0 1.849 1.75c2.88 2.41 6.392 3.99 10.532 4.75 1.909.35 3.96.53 6.139.53 5.75 0 10.1-1.08 13.08-3.27.02-.02.05-.03.07-.04l.24-.18c2.97-2.33 4.46-5.37 4.46-9.11 0-3.93-1.6-6.92-4.81-8.98-2.71-1.73-7.19-3.61-13.43-5.64-.25-.08-.5-.15-.75-.23-.05-.02-.11-.04-.16-.06-.87-.28-1.78-.56-2.72-.85-4.47-1.66-8.15-3.03-11.03-4.1a34.398 34.398 0 0 1-3.99-1.79c-.28-.14-.57-.29-.86-.45l-.39-.21c-.43-.23-.83-.46-1.21-.7a4.014 4.014 0 0 1-.27-.17 39.927 39.927 0 0 1-2.67-1.69c-3.16-2.15-5.52-4.83-7.08-8.03-1.56-3.21-2.33-6.96-2.33-11.27 0-8.51 3.02-15.27 9.06-20.26 6.05-4.99 13.33-7.49 21.84-7.49 6.33 0 12.01 1.27 17.03 3.82.32.16.64.32.96.5.87.45 1.71.95 2.54 1.49 4.34 2.82 7.93 6.46 10.77 10.89l-10.92 10.9c-.07-.1-2.68-3.54-4.04-5.03a19.25 19.25 0 0 0-2.49-2.51c-.12-.11-.23-.21-.35-.3a17.653 17.653 0 0 0-2.83-1.88c-.02-.02-.03-.02-.05-.03-2.97-1.53-6.4-2.29-10.29-2.29-3.37 0-6.25.59-8.62 1.76-.85.42-1.64.91-2.36 1.47-2.75 2.15-4.13 5.06-4.13 8.72 0 3.5 1.41 6.26 4.22 8.28.53.38 1.13.76 1.82 1.15.36.2.74.4 1.15.6 2.9 1.43 6.89 2.92 11.96 4.47.49.19.96.36 1.41.53.59.19 1.19.37 1.8.55 4.47 1.66 8.15 3.03 11.03 4.1 1.59.6 3.22 1.37 4.9 2.29l.06.03c.83.42 1.56.85 2.2 1.29.62.39 1.26.79 1.9 1.23z" id="name" fill="#FFF"/></g></g></svg>