<?xml version="1.0" encoding="UTF-8" standalone="no"?><!DOCTYPE svg PUBLIC "-//W3C//DTD SVG 1.1//EN" "http://www.w3.org/Graphics/SVG/1.1/DTD/svg11.dtd"><svg width="100%" height="100%" viewBox="0 0 2918 910" version="1.1" xmlns="http://www.w3.org/2000/svg" xmlns:xlink="http://www.w3.org/1999/xlink" xml:space="preserve" xmlns:serif="http://www.serif.com/" style="fill-rule:evenodd;clip-rule:evenodd;stroke-linejoin:round;stroke-miterlimit:2;"><rect id="Artboard2" x="0" y="0" width="2917.79" height="909.779" style="fill:none;"/><g id="Layer-1" serif:id="Layer 1"><path d="M249.975,416.493l-166.616,-166.621l166.616,-166.625l44.192,44.196l-122.421,122.429l122.421,122.429l-44.192,44.192Z" style="fill:#2f307d;fill-rule:nonzero;"/><path d="M666.703,333.249l-62.5,0c0,-149.292 -121.458,-270.746 -270.75,-270.746l0,-62.5c183.755,0 333.25,149.492 333.25,333.246" style="fill:#fdbd43;fill-rule:nonzero;"/><path d="M333.248,666.558c-183.754,-0 -333.246,-149.496 -333.246,-333.246l62.5,0c0,149.292 121.454,270.746 270.746,270.746l-0,62.5Z" style="fill:#fdbd43;fill-rule:nonzero;"/><path d="M416.524,583.16l-44.191,-44.192l122.425,-122.429l-122.425,-122.429l44.191,-44.196l166.621,166.625l-166.621,166.621Z" style="fill:#2f307d;fill-rule:nonzero;"/><path d="M1305.41,239.163c-40.459,0 -70,14.709 -88.713,44.084l0,-151.125l-61.829,-0l-0,400.666l61.829,0l0,-153.416c0,-27.834 6.671,-48.542 20.046,-62.084c13.333,-13.541 30.917,-20.333 52.667,-20.333c19.833,0 35.458,5.75 46.916,17.167c11.459,11.458 17.167,27.875 17.167,49.25l0,169.416l61.833,0l0,-175.708c0,-36.667 -10.125,-65.458 -30.333,-86.458c-20.25,-20.959 -46.75,-31.459 -79.583,-31.459" style="fill:#2f307d;fill-rule:nonzero;"/><path d="M1680.33,454.371c-17.166,17.167 -38.333,25.75 -63.541,25.75c-25.163,0 -46.375,-8.583 -63.542,-25.75c-17.163,-17.166 -25.75,-38.708 -25.75,-64.666c-0,-25.959 8.587,-47.542 25.75,-64.709c17.167,-17.166 38.379,-25.75 63.542,-25.75c25.208,0 46.375,8.584 63.541,25.75c17.167,17.167 25.75,38.75 25.75,64.709c0,25.958 -8.583,47.5 -25.75,64.666m-63.541,-215.208c-41.959,-0 -77.667,14.5 -107.038,43.5c-29.375,29 -44.046,64.667 -44.046,107.042c0,42.333 14.671,78.041 44.046,107c29.371,29.041 65.079,43.5 107.038,43.5c42.375,-0 78.125,-14.459 107.337,-43.5c29.167,-28.959 43.792,-64.667 43.792,-107c-0,-42.375 -14.625,-78.042 -43.792,-107.042c-29.212,-29 -64.962,-43.5 -107.337,-43.5" style="fill:#2f307d;fill-rule:nonzero;"/><path d="M2040.91,455.246c-17.167,17.334 -38.75,26.042 -64.667,26.042c-25.958,-0 -47.5,-8.708 -64.666,-26.042c-17.209,-17.375 -25.788,-39.208 -25.788,-65.541c0,-26.334 8.579,-48.167 25.788,-65.542c17.166,-17.375 38.708,-26.042 64.666,-26.042c25.917,0 47.5,8.667 64.667,26.042c17.167,17.375 25.75,39.208 25.75,65.542c0,26.333 -8.583,48.166 -25.75,65.541m-54.954,-216.083c-43.504,-0 -76.879,16.208 -100.167,48.625l0,-41.208l-61.796,-0l0,424.287l61.796,0l0,-178.704c23.288,32.042 56.663,48.042 100.167,48.042c39.287,-0 72.875,-14.459 100.746,-43.5c27.837,-28.959 41.796,-64.667 41.796,-107c-0,-42 -13.959,-77.584 -41.796,-106.75c-27.871,-29.209 -61.459,-43.792 -100.746,-43.792" style="fill:#2f307d;fill-rule:nonzero;"/><path d="M2547.53,466.139l-85.371,-219.559l-67.545,0l121.379,292.855l-2.879,17.558c-7.625,19.833 -17.375,34.417 -29.209,43.792c-11.829,9.333 -27.454,13.416 -46.912,12.291l-0,57.792c65.625,3.833 112.166,-31.292 139.662,-105.292l109.875,-318.996l-65.791,0l-73.209,219.559Z" style="fill:#2f307d;fill-rule:nonzero;"/><path d="M2902.16,403.163c-10.417,-12.958 -23.375,-21.792 -38.917,-26.583c-15.542,-4.792 -30.708,-9.459 -45.5,-14.042c-14.796,-4.542 -27.5,-9.542 -38.079,-15c-10.546,-5.458 -15.838,-12.917 -15.838,-22.333c0.001,-9.792 4.001,-17.25 12.001,-22.334c0.666,-0.416 1.333,-0.833 2.041,-1.166c7.667,-4.334 16.879,-6.459 27.708,-6.459c16.084,0 29.084,4.167 39,12.542c0.125,0.042 0.205,0.125 0.334,0.25c6.166,5.25 11.666,11.125 16.458,17.667l11.371,-11.375l29.796,-29.792c-0,-0.004 -0.004,-0.004 -0.004,-0.004l-0,-0.004c-8.917,-12.084 -20.163,-21.959 -33.705,-29.625c-18.5,-10.5 -39.583,-15.75 -63.254,-15.75c-0.296,-0 -0.583,0.025 -0.887,0.025c-1.221,0.008 -2.442,0.033 -3.654,0.066c-0.871,0.034 -1.75,0.067 -2.625,0.1c-0.205,0.013 -0.421,0.009 -0.625,0.017l0.008,0.008l-0.004,0c-26.334,1.292 -48.625,9.209 -66.875,23.834c-20.042,16 -30.046,37.208 -30.046,63.541c0,19.084 5.208,34.792 15.712,47.209c10.496,12.416 23.542,21 39.042,25.791c15.542,4.75 30.708,9.459 45.5,14c14.833,4.584 27.458,9.709 37.958,15.417c10.5,5.75 15.75,13.167 15.75,22.333c0,17.334 -10.708,27.667 -32.041,30.959c-4.959,0.75 -10.5,1.125 -16.625,1.125c-18.125,-0 -32.709,-4.292 -43.838,-12.917c-8.995,-7 -16.533,-15.292 -22.62,-24.75l-42.292,42.292c8.875,14 20.958,25.458 36.087,34.291c20.204,11.792 44.413,17.709 72.663,17.709c32.041,-0 58.666,-7.792 79.875,-23.459c21.166,-15.625 31.75,-37.208 31.75,-64.666c-0,-19.667 -5.209,-36 -15.625,-48.917" style="fill:#2f307d;fill-rule:nonzero;"/><path d="M2332.7,376.58c-15.538,-4.792 -30.709,-9.458 -45.501,-14.042c-14.791,-4.541 -27.504,-9.541 -38.083,-15c-10.541,-5.458 -15.829,-12.916 -15.829,-22.333c0,-9.792 3.996,-17.25 12,-22.333c0.663,-0.417 1.329,-0.834 2.038,-1.167c7.666,-4.333 16.875,-6.458 27.708,-6.458c16.087,-0 29.087,4.166 39.004,12.541c0.121,0.042 0.204,0.125 0.329,0.25c6.167,5.25 11.663,11.125 16.459,17.667l41.166,-41.167c-8.916,-12.083 -20.166,-21.958 -33.708,-29.625c-18.504,-10.5 -39.583,-15.75 -63.25,-15.75c-1.542,0 -3.042,0.042 -4.542,0.084c-1.083,0.041 -2.166,0.083 -3.25,0.125c-26.333,1.291 -48.625,9.208 -66.875,23.833c-20.041,16 -30.041,37.208 -30.041,63.542c-0,19.083 5.208,34.791 15.708,47.208c10.5,12.417 23.542,21 39.042,25.792c15.537,4.75 30.708,9.458 45.5,14c14.829,4.583 27.458,9.708 37.958,15.416c10.5,5.75 15.746,13.167 15.746,22.334c-0,17.333 -10.704,27.666 -32.038,30.958c-4.958,0.75 -10.496,1.125 -16.625,1.125c-18.125,0 -32.708,-4.296 -43.833,-12.917c-9,-7.004 -16.542,-15.291 -22.625,-24.75l-42.292,42.292c8.875,13.996 20.954,25.454 36.079,34.292c20.213,11.791 44.425,17.708 72.671,17.708c32.042,0 58.667,-7.796 79.875,-23.458c21.167,-15.625 31.75,-37.209 31.75,-64.667c0,-19.667 -5.208,-36 -15.625,-48.917c-10.416,-12.958 -23.379,-21.791 -38.916,-26.583" style="fill:#2f307d;fill-rule:nonzero;"/><path d="M1064.45,340.746c-2.667,-1.833 -5.333,-3.5 -7.917,-5.125c-2.666,-1.833 -5.708,-3.625 -9.166,-5.375c-0.084,-0.041 -0.167,-0.083 -0.25,-0.125c-7,-3.833 -13.792,-7.041 -20.417,-9.541c-12,-4.459 -27.333,-10.167 -45.958,-17.084c-2.542,-0.75 -5.042,-1.5 -7.5,-2.291c-1.875,-0.709 -3.834,-1.417 -5.875,-2.209c-21.125,-6.458 -37.75,-12.666 -49.834,-18.625c-1.708,-0.833 -3.291,-1.666 -4.791,-2.5c-2.875,-1.625 -5.375,-3.208 -7.584,-4.791c-11.708,-8.417 -17.583,-19.917 -17.583,-34.5c-0,-15.25 5.75,-27.375 17.208,-36.334c3,-2.333 6.292,-4.375 9.834,-6.125c9.875,-4.875 21.875,-7.333 35.916,-7.333c16.209,-0 30.5,3.167 42.875,9.542c0.084,0.041 0.125,0.041 0.209,0.125c4.166,2.208 8.083,4.833 11.791,7.833c0.5,0.375 0.959,0.792 1.459,1.25c3.708,3.083 7.166,6.583 10.375,10.458c5.666,6.209 16.541,20.542 16.833,20.959l45.5,-45.417c-11.833,-18.458 -26.792,-33.625 -44.875,-45.375c-3.458,-2.25 -6.958,-4.333 -10.583,-6.208c-1.334,-0.75 -2.667,-1.417 -4,-2.084c-20.917,-10.625 -44.584,-15.916 -70.959,-15.916c-35.458,-0 -65.791,10.416 -91,31.208c-25.166,20.792 -37.75,48.958 -37.75,84.417c0,17.958 3.209,33.583 9.709,46.958c6.5,13.333 16.333,24.5 29.5,33.458c3.75,2.584 7.458,4.917 11.125,7.042c0.375,0.25 0.75,0.5 1.125,0.708c1.583,1 3.25,1.959 5.041,2.917c0.542,0.292 1.084,0.583 1.625,0.875c1.209,0.667 2.417,1.292 3.584,1.875c5.666,2.958 11.208,5.458 16.625,7.458c12,4.459 27.333,10.167 45.958,17.084c3.917,1.208 7.708,2.375 11.333,3.541c0.209,0.084 0.459,0.167 0.667,0.25c1.042,0.334 2.083,0.625 3.125,0.959c26,8.458 44.667,16.291 55.958,23.5c13.375,8.583 20.042,21.041 20.042,37.416c-0,15.584 -6.208,28.25 -18.583,37.954c-0.334,0.255 -0.667,0.505 -1,0.755c-0.084,0.041 -0.209,0.083 -0.292,0.166c-12.417,9.125 -30.542,13.625 -54.5,13.625c-9.083,0 -17.625,-0.75 -25.583,-2.212c-17.25,-3.163 -31.875,-9.746 -43.875,-19.788c-2.542,-2.125 -5,-4.375 -7.292,-6.833c-0.167,-0.167 -0.292,-0.292 -0.417,-0.458c-2.875,-2.917 -5.583,-5.959 -8.166,-9.125c-6.459,-7.875 -12.042,-16.542 -16.709,-25.917l-47.083,47.083c11.167,22.542 27.583,40.875 49.208,55.042c3.75,2.458 7.625,4.708 11.584,6.792c1.666,0.916 3.375,1.75 5.041,2.541c1.959,0.959 3.875,1.834 5.875,2.667c22.042,9.542 47.292,14.292 75.667,14.292c42.375,-0 76.625,-10.584 102.75,-31.755c0.792,-0.62 1.583,-1.287 2.333,-1.954c0.375,-0.296 0.75,-0.625 1.125,-0.916c25.167,-20.792 37.75,-48.959 37.75,-84.417c0,-17.958 -3.208,-33.583 -9.708,-46.958c-6.5,-13.334 -16.333,-24.5 -29.5,-33.459" style="fill:#2f307d;fill-rule:nonzero;"/><g><path d="M878.983,860.345l-38.574,0l-0,-174.194l73.486,-0c14.567,-0 27.995,5.412 40.283,16.235c12.37,10.905 18.555,25.147 18.555,42.725c-0,16.845 -6.022,30.924 -18.067,42.236c-11.881,11.149 -25.472,16.724 -40.771,16.724l-34.912,-0l-0,56.274Zm-0,-139.282l-0,47.974l32.715,-0c5.534,-0 10.62,-1.831 15.258,-5.494c4.802,-3.824 7.203,-9.969 7.203,-18.432c-0,-8.382 -2.401,-14.486 -7.203,-18.311c-4.801,-3.825 -9.887,-5.737 -15.258,-5.737l-32.715,-0Z" style="fill:#fdbd43;fill-rule:nonzero;"/><rect x="1002.89" y="686.151" width="37.354" height="174.194" style="fill:#fdbd43;fill-rule:nonzero;"/><path d="M1132.53,732.049c9.44,0 17.578,1.75 24.414,5.249c6.836,3.5 11.23,8.016 13.183,13.55l0,-16.479l37.232,-0l-0,125.976l-37.232,0l0,-16.479c-1.871,5.534 -6.245,10.03 -13.122,13.488c-6.877,3.459 -15.035,5.188 -24.475,5.188c-17.822,0 -32.715,-6.225 -44.678,-18.676c-11.881,-12.858 -17.822,-28.361 -17.822,-46.509c-0,-18.229 5.941,-33.651 17.822,-46.265c11.963,-12.695 26.856,-19.043 44.678,-19.043Zm6.836,96.802c9.196,0 16.927,-3.011 23.193,-9.033c6.511,-6.266 9.766,-13.753 9.766,-22.461c-0,-8.789 -3.255,-16.195 -9.766,-22.217c-6.185,-6.185 -13.916,-9.277 -23.193,-9.277c-9.033,-0 -16.643,3.092 -22.827,9.277c-6.185,5.941 -9.278,13.346 -9.278,22.217c0,8.789 3.093,16.276 9.278,22.461c6.266,6.022 13.875,9.033 22.827,9.033Z" style="fill:#fdbd43;fill-rule:nonzero;"/><path d="M1287.07,860.345l-36.255,0l-0,-92.285l-16.724,-0l0,-33.691l16.724,-0l-0,-48.218l36.255,-0l-0,48.218l27.71,-0l-0,33.691l-27.71,-0l-0,92.285Z" style="fill:#fdbd43;fill-rule:nonzero;"/><path d="M1391.69,860.345l-36.011,0l0,-92.285l-20.752,-0l0,-33.691l20.752,-0l0,-3.54c0,-18.23 4.924,-31.21 14.771,-38.941c7.161,-6.185 18.758,-9.277 34.79,-9.277c4.476,-0 9.481,0.407 15.014,1.22l0,31.006c-2.441,-0.813 -6.225,-1.22 -11.352,-1.22c-6.022,-0 -10.396,1.159 -13.123,3.479c-2.726,2.319 -4.089,6.164 -4.089,11.535l-0,5.738l25.269,-0l-0,33.691l-25.269,-0l-0,92.285Z" style="fill:#fdbd43;fill-rule:nonzero;"/><path d="M1505.46,730.584c19.043,0 35.523,6.511 49.439,19.532c13.672,12.614 20.508,28.361 20.508,47.241c-0,18.799 -6.836,34.627 -20.508,47.485c-13.997,12.858 -30.477,19.287 -49.439,19.287c-19.205,0 -35.807,-6.429 -49.804,-19.287c-13.509,-12.939 -20.264,-28.768 -20.264,-47.485c0,-18.799 6.755,-34.546 20.264,-47.241c13.916,-13.021 30.517,-19.532 49.804,-19.532Zm-32.836,66.773c-0,9.277 3.173,17.09 9.521,23.437c6.348,6.348 14.119,9.522 23.315,9.522c9.115,-0 16.846,-3.174 23.194,-9.522c6.347,-6.591 9.521,-14.404 9.521,-23.437c0,-9.196 -3.174,-16.968 -9.521,-23.316c-6.185,-6.429 -13.916,-9.643 -23.194,-9.643c-9.358,-0 -17.13,3.214 -23.315,9.643c-6.348,6.348 -9.521,14.12 -9.521,23.316Z" style="fill:#fdbd43;fill-rule:nonzero;"/><path d="M1642.67,860.345l-37.353,0l-0,-125.976l37.353,-0l0,17.212c2.849,-6.348 7.487,-11.272 13.916,-14.771c6.429,-3.499 13.957,-5.249 22.583,-5.249c2.36,-0 5.575,0.244 9.644,0.732l0,35.035c-4.232,-0.814 -8.382,-1.221 -12.451,-1.221c-10.661,-0 -18.941,2.869 -24.841,8.606c-5.901,5.737 -8.851,13.773 -8.851,24.109l0,61.523Z" style="fill:#fdbd43;fill-rule:nonzero;"/><path d="M1755.34,860.345l-37.353,0l-0,-125.976l37.353,-0l0,15.747c2.442,-5.534 6.612,-10.01 12.512,-13.428c5.901,-3.418 12.635,-5.127 20.203,-5.127c17.009,-0 28.402,6.673 34.18,20.02c6.999,-13.347 20.996,-20.02 41.992,-20.02c14.323,-0 25.37,4.598 33.142,13.794c7.772,9.196 11.658,22.013 11.658,38.452l-0,76.538l-37.232,0l0,-72.021c0,-7.406 -1.648,-13.204 -4.943,-17.395c-3.296,-4.191 -7.915,-6.287 -13.855,-6.287c-6.104,0 -11.129,2.319 -15.076,6.958c-3.947,4.639 -5.921,10.62 -5.921,17.944l0,70.801l-37.231,0l-0,-72.021c-0,-7.406 -1.628,-13.204 -4.883,-17.395c-3.255,-4.191 -7.853,-6.287 -13.794,-6.287c-6.022,0 -10.986,2.319 -14.892,6.958c-3.907,4.639 -5.86,10.62 -5.86,17.944l0,70.801Z" style="fill:#fdbd43;fill-rule:nonzero;"/></g></g></svg>