<?xml version="1.0" encoding="utf-8"?>
<!-- Generator: Adobe Illustrator 24.1.1, SVG Export Plug-In . SVG Version: 6.00 Build 0)  -->
<svg version="1.1" id="Layer_1" xmlns="http://www.w3.org/2000/svg" xmlns:xlink="http://www.w3.org/1999/xlink" x="0px" y="0px"
	 viewBox="0 0 512 512" style="enable-background:new 0 0 512 512;" xml:space="preserve">
<g>
	<path d="M25.6,512h460.8c14.1,0,25.6-11.5,25.6-25.6c0-14.1-11.5-25.6-25.6-25.6H25.6C11.5,460.8,0,472.3,0,486.4
		C0,500.5,11.5,512,25.6,512"/>
	<path d="M179.2,179.2h25.6c14.1,0,25.6-11.5,25.6-25.6c0-14.1-11.5-25.6-25.6-25.6h-25.6c-14.1,0-25.6,11.5-25.6,25.6
		C153.6,167.7,165.1,179.2,179.2,179.2"/>
	<path d="M179.2,281.6h25.6c14.1,0,25.6-11.5,25.6-25.6c0-14.1-11.5-25.6-25.6-25.6h-25.6c-14.1,0-25.6,11.5-25.6,25.6
		C153.6,270.1,165.1,281.6,179.2,281.6"/>
	<path d="M179.2,384h25.6c14.1,0,25.6-11.5,25.6-25.6c0-14.1-11.5-25.6-25.6-25.6h-25.6c-14.1,0-25.6,11.5-25.6,25.6
		C153.6,372.5,165.1,384,179.2,384"/>
	<path d="M307.2,179.2h25.6c14.1,0,25.6-11.5,25.6-25.6c0-14.1-11.5-25.6-25.6-25.6h-25.6c-14.1,0-25.6,11.5-25.6,25.6
		C281.6,167.7,293.1,179.2,307.2,179.2"/>
	<path d="M307.2,281.6h25.6c14.1,0,25.6-11.5,25.6-25.6c0-14.1-11.5-25.6-25.6-25.6h-25.6c-14.1,0-25.6,11.5-25.6,25.6
		C281.6,270.1,293.1,281.6,307.2,281.6"/>
	<path d="M307.2,384h25.6c14.1,0,25.6-11.5,25.6-25.6c0-14.1-11.5-25.6-25.6-25.6h-25.6c-14.1,0-25.6,11.5-25.6,25.6
		C281.6,372.5,293.1,384,307.2,384"/>
	<path d="M102.4,486.4V76.8c0-14.1,11.5-25.6,25.6-25.6h256c14.1,0,25.6,11.5,25.6,25.6v409.6c0,14.1,11.5,25.6,25.6,25.6
		c14.1,0,25.6-11.5,25.6-25.6V76.8C460.8,34.4,426.4,0,384,0H128C85.6,0,51.2,34.4,51.2,76.8v409.6c0,14.1,11.5,25.6,25.6,25.6
		C90.9,512,102.4,500.5,102.4,486.4z"/>
</g>
</svg>
