<svg width="24" height="24" xmlns="http://www.w3.org/2000/svg">
    <path style="stroke:none;stroke-width:1;stroke-dasharray:none;stroke-linecap:butt;stroke-dashoffset:0;stroke-linejoin:miter;stroke-miterlimit:4;fill:#000;fill-rule:nonzero;opacity:1" transform="matrix(1.43 0 0 1.43 .56 1.275)" d="M2.5 1C1.676 1 1 1.676 1 2.5v8c0 .824.676 1.5 1.5 1.5H4v.5c0 .824.676 1.5 1.5 1.5h8c.824 0 1.5-.676 1.5-1.5v-8c0-.824-.676-1.5-1.5-1.5H12v-.5c0-.824-.676-1.5-1.5-1.5Zm0 1h8c.281 0 .5.219.5.5v8c0 .281-.219.5-.5.5h-8a.494.494 0 0 1-.5-.5v-8c0-.281.219-.5.5-.5ZM12 4h1.5c.281 0 .5.219.5.5v8c0 .281-.219.5-.5.5h-8a.494.494 0 0 1-.5-.5V12h5.5c.824 0 1.5-.676 1.5-1.5Z"/>
</svg>
