<svg id="Capa_1" enable-background="new 0 0 512 512" height="512" viewBox="0 0 512 512" width="512" xmlns="http://www.w3.org/2000/svg"><g><path d="m108.551 82.516h151.009c4.142 0 7.5-3.357 7.5-7.5s-3.358-7.5-7.5-7.5h-151.009c-4.142 0-7.5 3.357-7.5 7.5s3.358 7.5 7.5 7.5z"/><path d="m108.551 131.853h151.009c4.142 0 7.5-3.357 7.5-7.5s-3.358-7.5-7.5-7.5h-151.009c-4.142 0-7.5 3.357-7.5 7.5s3.358 7.5 7.5 7.5z"/><path d="m197.884 268.202c0-3.564-4.706-5.847-7.558-5.847-2.424 0-4.992 1.141-6.56 4.136l-34.511 68.024c-.571.998-.856 2.139-.856 3.138 0 3.422 2.282 5.562 5.276 5.562h35.082v18.396c0 3.28 3.708 4.991 7.558 4.991 3.708 0 7.558-1.711 7.558-4.991v-18.396h6.988c2.709 0 5.134-3.565 5.134-6.988 0-3.564-1.711-7.13-5.134-7.13h-6.988v-19.681c0-3.564-3.85-4.991-7.558-4.991-3.85 0-7.558 1.427-7.558 4.991v19.681h-20.963l29.377-58.612c.428-.856.713-1.569.713-2.283z"/><path d="m288.157 335.656v-41.499c0-23.103-14.118-31.802-32.087-31.802-18.111 0-31.944 8.699-31.944 31.802v41.499c0 23.103 13.833 31.802 31.944 31.802 17.969 0 32.087-8.699 32.087-31.802zm-48.914 0v-41.499c0-12.55 6.132-18.396 16.828-18.396 10.553 0 16.971 5.847 16.971 18.396v41.499c0 12.55-6.417 18.396-16.971 18.396-10.696.001-16.828-5.846-16.828-18.396z"/><path d="m345.204 268.202c0-3.564-4.706-5.847-7.558-5.847-2.425 0-4.992 1.141-6.56 4.136l-34.511 68.024c-.571.998-.856 2.139-.856 3.138 0 3.422 2.282 5.562 5.277 5.562h35.082v18.396c0 3.28 3.708 4.991 7.558 4.991 3.708 0 7.559-1.711 7.559-4.991v-18.396h6.988c2.709 0 5.134-3.565 5.134-6.988 0-3.564-1.711-7.13-5.134-7.13h-6.988v-19.681c0-3.564-3.851-4.991-7.559-4.991-3.851 0-7.558 1.427-7.558 4.991v19.681h-20.963l29.377-58.612c.427-.856.712-1.569.712-2.283z"/><path d="m456.79 118.946-116.75-116.75c-1.406-1.406-3.314-2.196-5.303-2.196h-247.75c-18.733 0-33.974 15.24-33.974 33.974v444.053c0 18.733 15.24 33.974 33.973 33.974h338.027c18.733 0 33.973-15.24 33.973-33.974v-353.777c.001-1.989-.789-3.896-2.196-5.304zm-114.553-93.34 91.144 91.144h-78.641c-6.894 0-12.502-5.608-12.502-12.503v-78.641zm101.75 452.42c0 10.462-8.511 18.974-18.973 18.974h-338.027c-10.462 0-18.973-8.512-18.973-18.974v-444.052c-.001-10.462 8.511-18.974 18.973-18.974h240.25v89.247c0 15.165 12.337 27.503 27.502 27.503h89.248z"/><path d="m403.449 328.892c-4.142 0-7.5 3.357-7.5 7.5v68.368c0 6.968-5.669 12.637-12.637 12.637h-254.624c-6.968 0-12.637-5.669-12.637-12.637v-68.368c0-4.143-3.358-7.5-7.5-7.5s-7.5 3.357-7.5 7.5v68.368c0 15.239 12.398 27.637 27.637 27.637h254.624c15.239 0 27.637-12.397 27.637-27.637v-68.368c0-4.143-3.358-7.5-7.5-7.5z"/><path d="m101.051 225.88v75.615c0 4.143 3.358 7.5 7.5 7.5s7.5-3.357 7.5-7.5v-75.615c0-6.969 5.669-12.638 12.637-12.638h254.624c6.968 0 12.637 5.669 12.637 12.638v75.615c0 4.143 3.358 7.5 7.5 7.5s7.5-3.357 7.5-7.5v-75.615c0-15.239-12.398-27.638-27.637-27.638h-254.624c-15.239 0-27.637 12.399-27.637 27.638z"/></g></svg>