<svg xmlns="http://www.w3.org/2000/svg" width="512" height="512"><path d="M463.976 111.03q7.89 7.89 13.527 21.418 5.636 13.526 5.636 24.799V481.89q0 11.272-7.89 19.163-7.891 7.89-19.164 7.89H77.335q-11.272 0-19.163-7.89-7.89-7.891-7.89-19.163V30.997q0-11.273 7.89-19.163 7.891-7.89 19.163-7.89h252.5q11.273 0 24.8 5.635 13.526 5.636 21.417 13.527zM338.853 42.27v105.959h105.96q-2.818-8.173-6.2-11.554l-88.206-88.206q-3.381-3.382-11.554-6.2zm108.215 430.602V184.3H329.835q-11.272 0-19.163-7.89-7.89-7.89-7.89-19.163V40.015H86.353v432.857h360.715zM302.218 305.76q9.3 7.327 23.672 15.78 16.627-1.972 32.972-1.972 41.425 0 49.88 13.809 4.509 6.2.563 14.654 0 .282-.282.563l-.563.564v.282q-1.691 10.709-20.009 10.709-13.526 0-32.407-5.637-18.882-5.636-36.636-14.935-62.28 6.763-110.468 23.39-43.117 73.833-68.198 73.833-4.227 0-7.89-1.972l-6.764-3.382q-.282-.282-1.69-1.409-2.819-2.818-1.692-10.145 2.537-11.272 15.782-25.786 13.245-14.513 37.198-27.194 3.946-2.536 6.482 1.69.564.564.564 1.128 14.654-23.954 30.153-55.516 19.163-38.326 29.308-73.834-6.763-23.108-8.595-44.948-1.832-21.84 1.832-35.93 3.1-11.273 11.836-11.273h6.2q6.481 0 9.863 4.227 5.072 5.918 2.536 19.163-.564 1.69-1.127 2.254.282.846.282 2.255v8.454q-.564 34.663-3.946 54.107 15.5 46.217 41.144 67.07zM139.897 421.583q14.654-6.764 38.607-44.526-14.372 11.272-24.658 23.672-10.286 12.4-13.95 20.854zm112.16-259.264q-4.228 11.836-.564 37.199.282-1.973 1.972-12.4 0-.845 1.973-12.117.282-1.128 1.127-2.255-.281-.282-.281-.563 0-.282-.141-.423-.141-.141-.141-.423-.282-6.2-3.664-10.145 0 .282-.282.564v.563zm-34.945 186.275q38.044-15.217 80.034-22.826-.564-.282-3.664-2.677-3.1-2.396-4.509-3.805-21.417-18.88-35.79-49.598-7.608 24.236-23.39 55.516-8.454 15.782-12.68 23.39zm182.048-4.508q-6.763-6.764-39.453-6.764 21.417 7.89 34.944 7.89 3.946 0 5.073-.281 0-.282-.564-.845z"/></svg>