<svg xmlns:osb="http://www.openswatchbook.org/uri/2009/osb" xmlns="http://www.w3.org/2000/svg" xmlns:xlink="http://www.w3.org/1999/xlink" width="512" height="512"><defs><linearGradient id="a" osb:paint="solid"><stop offset="0"/></linearGradient><linearGradient xlink:href="#a" id="b" x1="128" y1="896" x2="1664" y2="896" gradientUnits="userSpaceOnUse" gradientTransform="translate(4.554 2.313) scale(.2818)"/></defs><path d="M454.32 136.453q3.945 3.945 7.89 10.145H329.196V13.585q6.2 3.945 10.146 7.89zM320.178 182.67h153.303v297.589q0 11.272-7.89 19.163-7.891 7.89-19.163 7.89H67.679q-11.273 0-19.163-7.89-7.891-7.89-7.891-19.163V29.366q0-11.272 7.89-19.163 7.891-7.89 19.164-7.89h225.446v153.303q0 11.272 7.89 19.163 7.891 7.89 19.164 7.89zm45.089 207.41v-18.035q0-3.946-2.536-6.482-2.537-2.536-6.482-2.536H157.857q-3.945 0-6.481 2.536-2.537 2.536-2.537 6.482v18.035q0 3.946 2.537 6.482 2.536 2.536 6.481 2.536H356.25q3.945 0 6.482-2.536 2.536-2.536 2.536-6.482zm0-72.143v-18.035q0-3.946-2.536-6.482-2.537-2.536-6.482-2.536H157.857q-3.945 0-6.481 2.536-2.537 2.536-2.537 6.482v18.035q0 3.946 2.537 6.482 2.536 2.536 6.481 2.536H356.25q3.945 0 6.482-2.536 2.536-2.536 2.536-6.481zm0-72.142v-18.036q0-3.945-2.536-6.482-2.537-2.536-6.482-2.536H157.857q-3.945 0-6.481 2.536-2.537 2.537-2.537 6.482v18.036q0 3.945 2.537 6.481 2.536 2.536 6.481 2.536H356.25q3.945 0 6.482-2.536 2.536-2.536 2.536-6.481z" fill="url(#b)"/></svg>