<svg version="1.1" id="Vrstva_1" xmlns="http://www.w3.org/2000/svg" x="0" y="0" viewBox="-711 25 512 512" xml:space="preserve"><style>.st0{fill:#444}</style><path class="st0" d="M-205.2 170.6L-331.1 66c-8.5-8.5-19.2-10.7-27.7-2.1 0 0 2.1 70.4 0 70.4-21.3 0-34.1 4.3-55.5 10.7-25.6 8.5-51.2 23.5-70.4 40.6-40.6 36.3-66.2 76.8-66.2 134.5 0 38.4 17.1 23.5 23.5 10.7 34.1-61.9 93.9-93.9 168.6-93.9V305c8.5 8.5 19.2 8.5 27.7 2.1l123.8-104.6c10.7-8.5 10.7-23.4 2.1-31.9z"/><path class="st0" d="M-262.8 315.7v160.1h-418.3V183.4h166.5c8.5-10.7 19.2-23.5 38.4-29.9H-711v350h478.1V290.1l-29.9 25.6z"/></svg>