<svg width="510" height="512" xmlns="http://www.w3.org/2000/svg"><path d="M449.635 281.088c1.048-8.192 1.834-16.384 1.834-25.088s-.786-16.896-1.834-25.088l55.29-42.24c4.978-3.84 6.288-10.752 3.144-16.384l-52.407-88.576c-3.145-5.632-10.22-7.68-15.984-5.632l-65.247 25.6c-13.626-10.24-28.3-18.688-44.284-25.088l-9.957-67.84C319.403 4.608 313.9 0 307.35 0H202.536c-6.551 0-12.054 4.608-12.84 10.752l-9.957 67.84c-15.984 6.4-30.658 15.104-44.284 25.088l-65.247-25.6c-6.027-2.304-12.84 0-15.984 5.632L1.817 172.288c-3.407 5.632-1.835 12.544 3.144 16.384l55.29 42.24c-1.049 8.192-1.835 16.64-1.835 25.088s.786 16.896 1.835 25.088l-55.29 42.24c-4.979 3.84-6.289 10.752-3.144 16.384l52.407 88.576c3.144 5.632 10.22 7.68 15.984 5.632l65.247-25.6c13.626 10.24 28.3 18.688 44.284 25.088l9.957 67.84c.786 6.144 6.289 10.752 12.84 10.752H307.35c6.55 0 12.053-4.608 12.84-10.752l9.957-67.84c15.984-6.4 30.658-15.104 44.284-25.088l65.247 25.6c6.026 2.304 12.84 0 15.984-5.632l52.407-88.576c3.144-5.632 1.834-12.544-3.145-16.384l-55.289-42.24zM254.943 345.6c-50.573 0-91.713-40.192-91.713-89.6 0-49.408 41.14-89.6 91.713-89.6 50.573 0 91.712 40.192 91.712 89.6 0 49.408-41.14 89.6-91.712 89.6z" fill-rule="evenodd"/></svg>