<?xml version="1.0" encoding="utf-8"?>
<!-- Generator: Adobe Illustrator 24.1.1, SVG Export Plug-In . SVG Version: 6.00 Build 0)  -->
<svg version="1.1" id="Layer_1" xmlns="http://www.w3.org/2000/svg" xmlns:xlink="http://www.w3.org/1999/xlink" x="0px" y="0px"
	 viewBox="0 0 512 512" style="enable-background:new 0 0 512 512;" xml:space="preserve">
<g>
	<path d="M128,438.4C163.2,464,208,480,256,480s92.8-16,128-41.6V400c0-25.6-22.4-48-48-48H176c-25.6,0-48,22.4-48,48V438.4z
		 M96,412.8V400c0-44.8,35.2-80,80-80h160c44.8,0,80,35.2,80,80v12.8c38.4-41.6,64-96,64-156.8c0-124.8-99.2-224-224-224
		S32,131.2,32,256C32,316.8,57.6,371.2,96,412.8z M256,512C115.2,512,0,396.8,0,256S115.2,0,256,0s256,115.2,256,256
		S396.8,512,256,512z"/>
	<path d="M256,256c35.2,0,64-28.8,64-64s-28.8-64-64-64s-64,28.8-64,64S220.8,256,256,256z M256,288c-54.4,0-96-41.6-96-96
		s41.6-96,96-96s96,41.6,96,96S310.4,288,256,288z"/>
</g>
</svg>
