<svg xmlns="http://www.w3.org/2000/svg" viewBox="-711 25 512 512"><path d="M-275.6 99.5C-375 .1-537 .1-636.4 99.5s-99.4 261.4 0 362.9c99.4 99.4 261.4 99.4 362.9 0 99.5-101.5 99.5-263.5-2.1-362.9zm-66.9 261.4c15.1 15.1 28.1 25.9 10.8 43.2-17.3 17.3-28.1 4.3-43.2-10.8l-79.9-77.8-79.9 79.9c-15.1 15.1-25.9 28.1-43.2 10.8s-4.3-28.1 10.8-43.2l79.9-79.9-79.9-82.1c-15.1-15.1-28.1-25.9-10.8-43.2s28.1-4.3 43.2 10.8l79.9 79.9 79.9-79.9c15.1-15.1 25.9-28.1 43.2-10.8 17.3 17.3 4.3 28.1-10.8 43.2l-79.9 79.9 79.9 80z" fill="#32464e"/></svg>