<svg xmlns:osb="http://www.openswatchbook.org/uri/2009/osb" xmlns="http://www.w3.org/2000/svg" xmlns:xlink="http://www.w3.org/1999/xlink" width="512" height="512"><defs><linearGradient id="a" osb:paint="solid"><stop offset="0"/></linearGradient><linearGradient xlink:href="#a" id="b" x1="128" y1="896" x2="1664" y2="896" gradientUnits="userSpaceOnUse" gradientTransform="translate(7.967 5.915) scale(.2818)"/></defs><path d="M457.733 113.002q7.89 7.89 13.526 21.418 5.637 13.527 5.637 24.799v324.643q0 11.272-7.891 19.163-7.89 7.89-19.163 7.89H71.092q-11.272 0-19.163-7.89-7.89-7.891-7.89-19.163V32.969q0-11.272 7.89-19.163 7.89-7.89 19.163-7.89h252.5q11.272 0 24.8 5.635 13.526 5.637 21.417 13.527zM332.61 44.242V150.2h105.96q-2.818-8.172-6.2-11.554L344.164 50.44q-3.382-3.382-11.554-6.2zm108.214 430.602V186.272H323.592q-11.272 0-19.163-7.89-7.89-7.89-7.89-19.163V41.987H80.108v432.857h360.715zM164.934 408.9v29.871h79.188V408.9h-21.135l29.026-45.371q1.409-1.973 2.818-4.65 1.409-2.677 2.113-3.805.705-1.127.987-1.127h.563q.282 1.127 1.41 2.818.563 1.127 1.268 2.114.704.986 1.69 2.254.987 1.268 1.832 2.396l30.154 45.37H273.43v29.872h82.006V408.9h-19.163l-54.107-76.934 54.953-79.47H356v-30.153h-78.624v30.153h20.853l-29.026 44.808q-1.127 1.972-2.818 4.65-1.69 2.677-2.536 3.804l-.564.845h-.563q-.282-1.127-1.41-2.818-1.69-3.1-4.79-6.481l-29.872-44.808h21.418v-30.153h-81.725v30.153h19.163l53.262 76.652-54.67 79.752h-19.164z" fill="url(#b)"/></svg>