<svg xmlns="http://www.w3.org/2000/svg" width="512" height="512" viewBox="0 0 512 512">
  <path fill-rule="evenodd" d="M486.4,230.8 L25.6,230.8 C11.4688,230.8 0,242.2688 0,256.4 C0,270.5568 11.4688,282 25.6,282 L486.4,282 C500.5312,282 512,270.5568 512,256.4 C512,242.2688 500.5312,230.8 486.4,230.8 Z M486.4,435.6 L25.6,435.6 C11.4688,435.6 0,447.0688 0,461.2 C0,475.3568 11.4688,486.8 25.6,486.8 L486.4,486.8 C500.5312,486.8 512,475.3568 512,461.2 C512,447.0688 500.5312,435.6 486.4,435.6 Z M25.6,77.2 L486.4,77.2 C500.5312,77.2 512,65.7568 512,51.6 C512,37.4688 500.5312,26 486.4,26 L25.6,26 C11.4688,26 0,37.4688 0,51.6 C0,65.7568 11.4688,77.2 25.6,77.2 Z"/>
</svg>
