<svg xmlns="http://www.w3.org/2000/svg" viewBox="-711 24.7 512 512"><path d="M-533.4 286.2c0 1.6.4 3.2.5 4.8l84.9-83.5c-2.3-.2-4.6-.5-7-.5-43.2 0-78.4 35.6-78.4 79.2zm329.7-18.7c-18.7-34.7-46.3-64.5-80-88l-63.9 62.8c5.5 13.6 8.5 28.4 8.5 43.9 0 64.5-52 117.1-115.9 117.1-16.5 0-32.2-3.6-46.4-9.9l-40.8 40.1c28 8.2 57.3 12.6 87.2 12.6 53 0 104.6-13.4 149.1-38.6 44.1-25 79.5-60.5 102.1-102.6 6.4-11.6 6.4-25.7.1-37.4z"/><path d="M-570.8 286.2c0-64.5 52-117 115.9-117 13.7 0 26.8 2.5 39 7l40.2-39.5c-25.5-6.7-52.2-10.3-79.2-10.3-53 0-104.6 13.4-149.2 38.6-44.1 25-79.4 60.5-102.1 102.6-6.3 11.6-6.3 25.7 0 37.4 17.6 32.6 42.9 61 73.8 83.9l67.4-66.2c-3.8-11.6-5.8-23.8-5.8-36.5zm194.2 0c0-4.8-.5-9.5-1.3-14.1l-93.2 91.5c5.2 1.1 10.6 1.7 16.2 1.7 43.1.1 78.3-35.4 78.3-79.1zM-249.1 101l-22.6-22.2-388.4 381.6 22.6 22.3z"/></svg>