<svg xmlns="http://www.w3.org/2000/svg" width="512" height="512"><path d="M349.09 233.263c38.634 0 69.586-30.467 69.586-68.21 0-37.743-30.952-68.21-69.585-68.21-38.633 0-69.818 30.467-69.818 68.21 0 37.743 31.185 68.21 69.818 68.21zm-186.18 0c38.632 0 69.585-30.467 69.585-68.21 0-37.743-30.953-68.21-69.586-68.21-38.633 0-69.818 30.467-69.818 68.21 0 37.743 31.185 68.21 69.818 68.21zm0 45.474C108.683 278.737 0 305.339 0 358.315v56.842h325.818v-56.842c0-52.976-108.683-79.578-162.909-79.578zm186.18 0c-6.748 0-14.428.454-22.574 1.136 26.997 19.1 45.848 44.792 45.848 78.442v56.842H512v-56.842c0-52.976-108.684-79.578-162.91-79.578z" fill-rule="evenodd"/></svg>