<svg xmlns="http://www.w3.org/2000/svg" viewBox="0 0 512 512"><path d="M384.5 190.9C384.5 85.5 298.4 0 192.2 0 86.1 0 0 85.5 0 190.9s86.1 190.9 192.2 190.9c106.2 0 192.3-85.4 192.3-190.9zM192.2 333.6c-79.3 0-143.7-63.9-143.7-142.7 0-78.8 64.3-142.7 143.7-142.7 79.4 0 143.7 63.9 143.7 142.7 0 78.8-64.3 142.7-143.7 142.7zm190.6-9.6s-3.1 24.5-18.6 40c-15.5 15.5-39.8 18.5-39.8 18.5L453.7 512l58.3-58.5L382.8 324zM168.5 86.1c-43.8 0-79.3 35.6-79.3 79.5 0 25.5 14.1 32.4 14.1 14.1 0-43.9 35.5-79.5 79.4-79.5 18.2 0 11.3-14.1-14.2-14.1z" fill="#32454e"/></svg>