<?xml version="1.0" encoding="UTF-8"?>
<svg width="38px" height="38px" viewBox="0 0 38 38" version="1.1" xmlns="http://www.w3.org/2000/svg" xmlns:xlink="http://www.w3.org/1999/xlink">
    <title>A4B3C6A0-5370-4435-A4D6-C2329CEA73A2</title>
    <g id="🏠home-page" stroke="none" stroke-width="1" fill="none" fill-rule="evenodd">
        <g id="Home-page" transform="translate(-200.000000, -33.000000)">
            <g id="shopsys" transform="translate(200.000000, 33.000000)">
                <path d="M37.0220893,18.860962 L33.5514377,18.860962 C33.5514377,10.5079558 26.8070359,3.71248344 18.516806,3.71248344 L18.516806,0.21555092 C28.7205219,0.21555092 37.0220893,8.57974724 37.0220893,18.860962" id="Fill-2" fill="#009AFF"></path>
                <path d="M18.5053991,37.5098933 C8.30145176,37.5098933 0.000115688389,29.1454638 0.000115688389,18.8644822 L3.47076737,18.8644822 C3.47076737,27.2174883 10.2151691,34.0129607 18.5053991,34.0129607 L18.5053991,37.5098933 Z" id="Fill-4" fill="#009AFF"></path>
                <polygon id="Fill-6" fill="#0F00A0" points="23.1297648 32.8436798 20.6757827 30.3711153 27.4738638 23.5210908 20.6757827 16.6710663 23.1297648 14.1982687 32.3820594 23.5210908"></polygon>
                <polygon id="Fill-1" fill="#0F00A0" points="13.7843649 24.4285714 4.08895265 14.9286902 13.7843649 5.42857143 16.3558106 7.94839538 9.23208652 14.9286902 16.3558106 21.908985"></polygon>
            </g>
        </g>
    </g>
</svg>