<?xml version="1.0" encoding="UTF-8"?>
<svg width="163px" height="38px" viewBox="0 0 163 38" version="1.1" xmlns="http://www.w3.org/2000/svg" xmlns:xlink="http://www.w3.org/1999/xlink">
    <title>A4B3C6A0-5370-4435-A4D6-C2329CEA73A2</title>
    <g id="ðŸ home-page" stroke="none" stroke-width="1" fill="none" fill-rule="evenodd">
        <g id="Home-page" transform="translate(-200.000000, -33.000000)">
            <g id="shopsys" transform="translate(200.000000, 33.000000)">
                <path d="M37.0220893,18.860962 L33.5514377,18.860962 C33.5514377,10.5079558 26.8070359,3.71248344 18.516806,3.71248344 L18.516806,0.21555092 C28.7205219,0.21555092 37.0220893,8.57974724 37.0220893,18.860962" id="Fill-2" fill="#009AFF"></path>
                <path d="M18.5053991,37.5098933 C8.30145176,37.5098933 0.000115688389,29.1454638 0.000115688389,18.8644822 L3.47076737,18.8644822 C3.47076737,27.2174883 10.2151691,34.0129607 18.5053991,34.0129607 L18.5053991,37.5098933 Z" id="Fill-4" fill="#009AFF"></path>
                <polygon id="Fill-6" fill="#0F00A0" points="23.1297648 32.8436798 20.6757827 30.3711153 27.4738638 23.5210908 20.6757827 16.6710663 23.1297648 14.1982687 32.3820594 23.5210908"></polygon>
                <path d="M72.4898589,13.5966564 C70.2431904,13.5966564 68.602729,14.4196012 67.5638473,16.0631595 L67.5638473,7.60780982 L64.1302159,7.60780982 L64.1302159,30.0254785 L67.5638473,30.0254785 L67.5638473,21.4414417 C67.5638473,19.8843742 67.9342815,18.7254908 68.677001,17.9678221 C69.4171753,17.2101534 70.3935853,16.8301534 71.6013721,16.8301534 C72.7029569,16.8301534 73.5706198,17.1518712 74.206906,17.7906442 C74.8431921,18.4317485 75.1599469,19.3505092 75.1599469,20.5464601 L75.1599469,30.0254785 L78.5935783,30.0254785 L78.5935783,20.1944356 C78.5935783,18.1426687 78.0313328,16.5317485 76.9093868,15.3570123 C75.7846642,14.1843742 74.3131079,13.5966564 72.4898589,13.5966564" id="Fill-8" fill="#0F00A0"></path>
                <path d="M93.309234,25.637854 C92.3559617,26.5983448 91.1805677,27.0785902 89.7807381,27.0785902 C88.3832224,27.0785902 87.2055146,26.5983448 86.2522423,25.637854 C85.2989699,24.6773632 84.8221024,23.4720871 84.8221024,22.0194613 C84.8221024,20.5673018 85.2989699,19.3596945 86.2522423,18.3992037 C87.2055146,17.4387129 88.3832224,16.9584675 89.7807381,16.9584675 C91.1805677,16.9584675 92.3559617,17.4387129 93.309234,18.3992037 C94.2625063,19.3596945 94.7391425,20.5673018 94.7391425,22.0194613 C94.7391425,23.4720871 94.2625063,24.6773632 93.309234,25.637854 M89.7807381,13.5967497 C87.450774,13.5967497 85.467875,14.408038 83.8366687,16.0306147 C82.2054624,17.6531914 81.3907848,19.6487742 81.3907848,22.0194613 C81.3907848,24.3882834 82.2054624,26.3861975 83.8366687,28.0064429 C85.467875,29.6313509 87.450774,30.440308 89.7807381,30.440308 C92.13384,30.440308 94.1190527,29.6313509 95.741004,28.0064429 C97.3606414,26.3861975 98.1727739,24.3882834 98.1727739,22.0194613 C98.1727739,19.6487742 97.3606414,17.6531914 95.741004,16.0306147 C94.1190527,14.408038 92.13384,13.5967497 89.7807381,13.5967497" id="Fill-10" fill="#0F00A0"></path>
                <path d="M113.332604,25.686811 C112.379331,26.656627 111.180568,27.1438663 109.741405,27.1438663 C108.300159,27.1438663 107.103941,26.656627 106.150668,25.686811 C105.195082,24.7146638 104.718446,23.4930687 104.718446,22.0196945 C104.718446,20.5463202 105.195082,19.3247252 106.150668,18.3525779 C107.103941,17.3804307 108.300159,16.8955227 109.741405,16.8955227 C111.180568,16.8955227 112.379331,17.3804307 113.332604,18.3525779 C114.285876,19.3247252 114.762512,20.5463202 114.762512,22.0196945 C114.762512,23.4930687 114.285876,24.7146638 113.332604,25.686811 M110.280744,13.5967497 C107.86517,13.5967497 106.011611,14.5036209 104.718446,16.3173632 L104.718446,14.011719 L101.286897,14.011719 L101.286897,37.7509951 L104.718446,37.7509951 L104.718446,27.7523325 C106.011611,29.5450933 107.86517,30.440308 110.280744,30.440308 C112.462627,30.440308 114.327524,29.6313509 115.875434,28.0064429 C117.421031,26.3861975 118.196143,24.3882834 118.196143,22.0196945 C118.196143,19.6697558 117.421031,17.6788356 115.875434,16.0469337 C114.327524,14.4127006 112.462627,13.5967497 110.280744,13.5967497" id="Fill-12" fill="#0F00A0"></path>
                <path d="M141.46566,26.2962564 L136.72475,14.0117656 L132.974132,14.0117656 L139.714138,30.3969926 L139.554488,31.3796307 C139.131068,32.4893239 138.589646,33.3052748 137.932536,33.8298147 C137.275426,34.3520233 136.407763,34.5804896 135.327234,34.5175448 L135.327234,37.7510417 C138.971418,37.9655202 141.555897,36.0002442 143.082984,31.8598761 L149.184158,14.0117656 L145.53095,14.0117656 L141.46566,26.2962564 Z" id="Fill-14" fill="#0F00A0"></path>
                <path d="M161.157999,22.7727006 C160.579557,22.0476699 159.860206,21.5534368 158.99694,21.2853387 C158.134136,21.0172405 157.291924,20.7561362 156.470305,20.4996945 C155.648918,20.245584 154.94345,19.9658294 154.355753,19.6604307 C153.770138,19.3550319 153.476521,18.9377313 153.476521,18.4108601 C153.476521,17.8630074 153.698643,17.4457067 154.142886,17.1612896 C154.179906,17.1379767 154.216695,17.1144307 154.256261,17.0960135 C154.681994,16.8535595 155.193337,16.7346638 155.794685,16.7346638 C156.688031,16.7346638 157.409926,16.9677926 157.960603,17.4363816 C157.967544,17.4387129 157.97194,17.4433755 157.979113,17.4503693 C158.321319,17.7441117 158.626968,18.0728233 158.893051,18.4388356 L159.524479,17.8023939 L161.179054,16.1355227 C161.178823,16.1352896 161.178823,16.1352896 161.178823,16.1350564 C160.683676,15.4589828 160.058959,14.9067006 159.306984,14.4775104 C158.279903,13.8900258 157.108905,13.5962834 155.794685,13.5962834 C155.778026,13.5962834 155.762061,13.5976822 155.745402,13.5976822 C155.677377,13.5981485 155.609815,13.5995472 155.542484,13.6014123 C155.493895,13.6032773 155.445306,13.6051423 155.396486,13.6072405 C155.385148,13.6077067 155.373116,13.6074736 155.36201,13.6079399 L155.362242,13.608173 L155.362242,13.6084061 C153.899941,13.6806761 152.661843,14.1236209 151.648413,14.9419031 C150.535722,15.8371178 149.980186,17.0237436 149.980186,18.4971178 C149.980186,19.5648479 150.269407,20.4437436 150.852708,21.1384675 C151.435546,21.8331914 152.159756,22.3134368 153.020477,22.581535 C153.883744,22.8473018 154.725956,23.1107374 155.547112,23.3648479 C156.371045,23.6212896 157.072116,23.908038 157.654954,24.2274245 C158.238255,24.5491423 158.52979,24.9641117 158.52979,25.4769951 C158.52979,26.446811 157.93492,27.0249706 156.750502,27.2091423 C156.475164,27.2511055 156.167433,27.2720871 155.827309,27.2720871 C154.820589,27.2720871 154.01077,27.0319644 153.392994,26.5493877 C152.89322,26.1577313 152.47466,25.6938049 152.136849,25.1646025 L149.788144,27.5308601 C150.280976,28.314173 150.9522,28.9552773 151.792098,29.4495104 C152.914275,30.109265 154.258575,30.440308 155.827309,30.440308 C157.606365,30.440308 159.085094,30.0043571 160.262802,29.1277926 C161.438196,28.2535595 162.025662,27.0459521 162.025662,25.5096331 C162.025662,24.409265 161.736441,23.4954 161.157999,22.7727006" id="Fill-16" fill="#0F00A0"></path>
                <path d="M129.535757,21.285362 C128.672953,21.0172638 127.830742,20.7559264 127.009123,20.4997178 C126.187735,20.2456074 125.482036,19.9658528 124.894339,19.660454 C124.308956,19.3550552 124.015339,18.9377546 124.015339,18.4108834 C124.015339,17.8630307 124.237461,17.4457301 124.681704,17.1613129 C124.718724,17.138 124.755745,17.114454 124.795079,17.0960368 C125.220812,16.8535828 125.732155,16.734454 126.333503,16.734454 C127.226849,16.734454 127.948744,16.9675828 128.499421,17.4364049 C128.506362,17.4387362 128.510758,17.4433988 128.517931,17.4503926 C128.860137,17.744135 129.165555,18.0728466 129.431869,18.4388589 L131.717872,16.135546 C131.222726,15.4594724 130.598008,14.9069571 129.846034,14.478 C128.818489,13.8905153 127.647954,13.596773 126.333503,13.596773 C126.248125,13.596773 126.164829,13.5991043 126.081302,13.6014356 C126.021376,13.6037669 125.961218,13.6060982 125.90106,13.6084294 C124.438758,13.6806994 123.200893,14.1236442 122.187231,14.9419264 C121.07454,15.8371411 120.519004,17.0237669 120.519004,18.4971411 C120.519004,19.5648712 120.808225,20.4437669 121.391526,21.1384908 C121.974364,21.8332147 122.698574,22.3134601 123.559295,22.5815583 C124.422331,22.8473252 125.264773,23.1107607 126.086161,23.3648712 C126.909631,23.6213129 127.610934,23.9080613 128.193772,24.2274479 C128.777073,24.5491656 129.068376,24.964135 129.068376,25.4767853 C129.068376,26.4468344 128.473738,27.0249939 127.28932,27.2091656 C127.013982,27.2511288 126.706251,27.2721104 126.366127,27.2721104 C125.359407,27.2721104 124.549588,27.0317546 123.931812,26.549411 C123.432269,26.1575215 123.013477,25.6938282 122.675667,25.1646258 L120.326962,27.5308834 C120.819794,28.3139632 121.490787,28.9550675 122.330685,29.4495337 C123.453093,30.1092883 124.797392,30.4403313 126.366127,30.4403313 C128.145183,30.4403313 129.623912,30.0041472 130.80162,29.127816 C131.977014,28.2535828 132.564711,27.0459755 132.564711,25.5096564 C132.564711,24.4090552 132.27549,23.4951902 131.697048,22.7727239 C131.118606,22.0476933 130.398793,21.553227 129.535757,21.285362" id="Fill-18" fill="#0F00A0"></path>
                <path d="M59.1095249,19.2803141 C58.9612124,19.1779706 58.8133626,19.0844859 58.669909,18.9937988 C58.5215965,18.890989 58.3526915,18.7907436 58.1606487,18.6928294 C58.1560212,18.6907313 58.1513937,18.6881669 58.1469975,18.6858356 C57.7580531,18.4713571 57.380909,18.292081 57.0130199,18.1519706 C56.3468862,17.9027558 55.4951882,17.5833693 54.460934,17.1963755 C54.3197942,17.1544123 54.1809681,17.112216 54.0444558,17.0681546 C53.9403363,17.0285227 53.8315892,16.9888908 53.7182146,16.9443632 C52.5451343,16.5832466 51.6221723,16.2356515 50.9509483,15.9025104 C50.8560838,15.8558847 50.7681606,15.8090258 50.6850964,15.7624 C50.525215,15.6717129 50.386389,15.5831239 50.2639906,15.494535 C49.6135905,15.0233816 49.2873493,14.379946 49.2873493,13.5639951 C49.2873493,12.7107436 49.6068806,12.0323387 50.2431667,11.5313448 C50.4095266,11.4005595 50.5923143,11.2863264 50.7889846,11.1884123 C51.3373475,10.9156515 52.0037126,10.7781055 52.7834524,10.7781055 C53.6835081,10.7781055 54.4771304,10.9552834 55.1643194,11.3119706 C55.1691784,11.3143018 55.1712607,11.3143018 55.1761197,11.3191975 C55.4074964,11.4427558 55.6247592,11.589627 55.8306846,11.7572466 C55.8584498,11.7782282 55.8841326,11.8017742 55.9118978,11.8271853 C56.1175918,11.9999337 56.3096345,12.1955288 56.488026,12.4123387 C56.802467,12.7597006 57.4065918,13.5618969 57.4225568,13.5849767 L59.9491912,11.0441055 C59.2920812,10.0111117 58.4614385,9.16275583 57.4572633,8.50509939 C57.2652206,8.37920982 57.0708641,8.2626454 56.8695663,8.15773742 C56.7957571,8.11577423 56.7217165,8.07847362 56.6474446,8.04117301 C55.4861645,7.44669448 54.1717131,7.15062086 52.707098,7.15062086 C50.7380817,7.15062086 49.0536587,7.73367607 47.6538292,8.89675583 C46.2563135,10.0600687 45.557787,11.6360196 45.557787,13.6201791 C45.557787,14.6247313 45.7357157,15.4989644 46.0968949,16.247308 C46.4576113,16.9933202 47.0038918,17.6181055 47.7350424,18.1195656 C47.9430502,18.2641055 48.1489755,18.3944245 48.3528184,18.5133202 C48.3736424,18.5275411 48.3942349,18.5412957 48.4150588,18.5531853 C48.502982,18.6089031 48.5957641,18.6627558 48.6950247,18.7161423 C48.7251037,18.7324613 48.755414,18.7490135 48.7852616,18.7650994 C48.8525923,18.8024 48.9194602,18.8376025 48.9842457,18.8700074 C49.2991495,19.0355288 49.6068806,19.1756393 49.907439,19.287308 C50.5738041,19.536989 51.4252707,19.8563755 52.4597563,20.2433693 C52.6770191,20.3109767 52.8875719,20.3760196 53.0888697,20.4412957 C53.1004386,20.4459583 53.1145526,20.450854 53.1261214,20.4552834 C53.1839656,20.4739337 53.2418098,20.4902528 53.299654,20.5091362 C54.7432137,20.9823877 55.7797817,21.4206699 56.4068127,21.8237497 C57.1495322,22.3042282 57.519735,23.0010503 57.519735,23.9174798 C57.519735,24.7893816 57.175215,25.4980933 56.488026,26.0410503 C56.4695158,26.0552712 56.4510057,26.0690258 56.4324956,26.0832466 C56.4276367,26.0853448 56.4206953,26.0876761 56.4160678,26.0925718 C55.726565,26.6028908 54.720076,26.8546699 53.3896595,26.8546699 C52.8854895,26.8546699 52.4109358,26.8129399 51.9692375,26.7311117 C51.0113376,26.5539337 50.1989738,26.1855902 49.5326086,25.6237497 C49.3917002,25.504854 49.2549565,25.3789644 49.1276993,25.2414184 C49.1184442,25.2320933 49.1115029,25.2250994 49.104793,25.2157742 C48.9449116,25.0528172 48.7947481,24.8824 48.6510631,24.7054552 C48.2926605,24.2648417 47.9823842,23.7799337 47.7232422,23.2553939 L45.1086846,25.8897497 C45.7290058,27.1509767 46.6403989,28.1765104 47.8412444,28.9693816 C48.0494835,29.1066945 48.2646639,29.232584 48.4844718,29.3491485 C48.5770225,29.4004368 48.6721184,29.4470626 48.7644377,29.4915902 C48.8734162,29.5449767 48.9798495,29.5939337 49.090679,29.6405595 C50.3146622,30.1744245 51.7168054,30.4401914 53.2924813,30.4401914 C55.6455831,30.4401914 57.5477316,29.8480442 58.998464,28.6637497 C59.0421943,28.6290135 59.0861558,28.5914798 59.1278037,28.5541791 C59.1488589,28.5378601 59.1696829,28.5194429 59.1905068,28.5031239 C60.5880225,27.3395779 61.286549,25.7638601 61.286549,23.7799337 C61.286549,22.7749153 61.1086203,21.9006822 60.7474411,21.1523387 C60.3867247,20.4063264 59.8404441,19.7815411 59.1095249,19.2803141" id="Fill-20" fill="#0F00A0"></path>
                <polygon id="Fill-1" fill="#0F00A0" points="13.7843649 24.4285714 4.08895265 14.9286902 13.7843649 5.42857143 16.3558106 7.94839538 9.23208652 14.9286902 16.3558106 21.908985"></polygon>
            </g>
        </g>
    </g>
</svg>