<svg xmlns="http://www.w3.org/2000/svg" version="1.1" class="si-glyph si-glyph-delete" id="svg2" width="512" height="512"><g id="cross" transform="matrix(1.4028 0 0 1.40278 -76.775 -75.058)"><path d="M310.182 235.995l103.285-103.259c5.006-5.018 5.006-13.237 0-18.251l-54.721-54.733c-5.014-5-13.229-5-18.24 0l-103.281 103.28-103.281-103.28c-5.018-5-13.229-5-18.246 0l-54.717 54.733c-5.008 5.014-5.008 13.233 0 18.251l103.281 103.259L60.999 339.263c-5.018 5.014-5.018 13.232 0 18.25l54.717 54.738c5.018 5.001 13.229 5.001 18.242 0l103.268-103.285L340.49 412.251c5.018 5.001 13.229 5.001 18.24 0l54.721-54.738c5.014-5.018 5.014-13.236 0-18.25z" id="path8"/></g><style id="style3343" type="text/css"/></svg>