<svg xmlns="http://www.w3.org/2000/svg" width="512" height="512"><path d="M462.784 111.019q7.89 7.89 13.527 21.417 5.636 13.527 5.636 24.8v324.642q0 11.273-7.89 19.163-7.891 7.89-19.163 7.89H76.144q-11.273 0-19.163-7.89-7.891-7.89-7.891-19.163V30.985q0-11.272 7.89-19.163 7.891-7.89 19.164-7.89h252.5q11.272 0 24.799 5.636 13.526 5.636 21.417 13.527zM337.661 42.258v105.96h105.96q-2.818-8.173-6.2-11.555l-88.205-88.205q-3.382-3.382-11.555-6.2zM445.876 472.86V184.29H328.644q-11.273 0-19.163-7.89-7.891-7.891-7.891-19.164V40.003H85.161V472.86h360.715zm-36.072-126.25v90.179H121.233v-54.107l54.107-54.107 36.071 36.071 108.215-108.214zM175.34 292.503q-22.545 0-38.326-15.78-15.781-15.782-15.781-38.327 0-22.545 15.781-38.326 15.781-15.781 38.326-15.781t38.326 15.781q15.781 15.781 15.781 38.326t-15.781 38.326q-15.781 15.781-38.326 15.781z"/></svg>