<svg xmlns="http://www.w3.org/2000/svg" height="512pt" viewBox="0 -21 512 512" width="512pt"><path d="M473.855 18.983H38.145c-15.004 0-27.23 12.226-27.23 27.23v54.465c0 15.004 12.226 27.23 27.23 27.23h435.71c15.004 0 27.23-12.226 27.23-27.23V46.213c0-15.004-12.226-27.23-27.23-27.23zm0 163.39H38.145c-15.004 0-27.23 12.226-27.23 27.23v54.465c0 15.004 12.226 27.23 27.23 27.23h435.71c15.004 0 27.23-12.226 27.23-27.23v-54.465c0-15.004-12.226-27.23-27.23-27.23zm0 163.39H38.145c-15.004 0-27.23 12.226-27.23 27.23v54.465c0 15.004 12.226 27.23 27.23 27.23h435.71c15.004 0 27.23-12.226 27.23-27.23v-54.465c0-15.004-12.226-27.23-27.23-27.23zm0 0" stroke-width="1.276"/></svg>