<svg xmlns="http://www.w3.org/2000/svg" width="512" height="512"><path d="M109.728 341.344V319.36c0-48.768 97.504-75.584 146.272-75.584 48.768 0 146.304 26.816 146.304 75.584v21.952zm212.096-194.88A65.92 65.92 0 0 1 256 212.448a65.92 65.92 0 0 1-65.824-66.016A65.92 65.92 0 0 1 256 80.448a65.92 65.92 0 0 1 65.824 65.984zM85.344 0C58.272 0 36.576 21.952 36.576 48.768V390.08c0 26.848 21.696 48.768 48.768 48.768h97.472L256 512l73.152-73.152h97.504c26.848 0 48.768-21.92 48.768-48.768V48.768C475.424 21.952 453.536 0 426.656 0z" fill-opacity=".65"/></svg>