<svg xmlns="http://www.w3.org/2000/svg" width="512" height="512"><path d="M51.2 89.6c0-21.248 17.152-38.4 38.4-38.4 21.248 0 38.4 17.152 38.4 38.4 0 21.248-17.152 38.4-38.4 38.4-21.248 0-38.4-17.152-38.4-38.4zm215.296-74.752A50.87 50.87 0 0 0 230.4 0H51.2C23.04 0 0 23.04 0 51.2v179.2c0 14.08 5.632 26.88 15.104 36.352l230.4 230.4C254.72 506.368 267.52 512 281.6 512c14.08 0 26.88-5.632 36.096-15.104l179.2-179.2C506.368 308.48 512 295.68 512 281.6c0-14.08-5.888-27.136-15.104-36.352z" fill-opacity=".65"/></svg>