<svg xmlns="http://www.w3.org/2000/svg" viewBox="-711 25 512 512"><path d="M-417.3 283.3c-19.5 0-35.2-15.9-35.2-35.6 0-19.6 15.8-35.6 35.2-35.6.4 0 .7.1 1.1.1-11.5-6.6-24.7-10.4-38.8-10.4-43.2 0-78.4 35.5-78.4 79.2s35.1 79.2 78.4 79.2c43.2 0 78.4-35.5 78.4-79.2 0-10.4-2-20.3-5.7-29.4-1.9 17.8-16.8 31.7-35 31.7zm213.6-21c-22.7-42.1-58-77.5-102.1-102.6-44.6-25.3-96.1-38.6-149.1-38.6s-104.6 13.4-149.2 38.6c-44.1 25-79.4 60.5-102.1 102.6-6.3 11.6-6.3 25.7 0 37.4 22.7 42.1 58 77.5 102.1 102.6 44.6 25.3 96.2 38.6 149.2 38.6 53 0 104.6-13.4 149.1-38.6 44.1-25 79.5-60.5 102.1-102.6 6.3-11.7 6.3-25.8 0-37.4zM-455 398c-63.9 0-115.9-52.5-115.9-117.1s52-117 115.9-117 115.9 52.5 115.9 117S-391.1 398-455 398z"/></svg>