<svg xmlns="http://www.w3.org/2000/svg" width="512" height="512"><path d="M490.142 231.746l-341.418 55.97c-31.717 27.985 1.87 52.24 1.87 52.24l333.95 1.865v46.642l-367.537-3.732c-14.925-9.328-26.109-39.179-29.85-65.298-3.732-26.12 24.253-54.105 24.253-54.105L53.585 47.045H21.858L14.396 6h80.228l20.518 67.164L497.604 71.3l-7.462 160.447zM182.306 405.254c27.82 0 50.373 22.548 50.373 50.373 0 27.82-22.553 50.373-50.373 50.373-27.825 0-50.368-22.553-50.368-50.373 0-27.825 22.543-50.373 50.368-50.373zm246.269 0c27.83 0 50.373 22.548 50.373 50.373 0 27.82-22.544 50.373-50.373 50.373-27.815 0-50.374-22.553-50.374-50.373 0-27.825 22.559-50.373 50.374-50.373z" clip-rule="evenodd" fill-rule="evenodd"/></svg>