<svg xmlns="http://www.w3.org/2000/svg" width="512" height="512"><path d="M506 256c-.127 137.608-111.205 250.085-250.17 250C117.8 505.915 5.958 394.498 6 255.873 6.042 117.078 118.35 6.043 256.042 6 394.032 5.958 506 118.01 506 256zm-206.815 54.755c0-30.81-.042-61.578.043-92.389.042-11.654-4.111-21.529-12.714-29.2-13.562-12.12-29.327-14.663-46.237-8.687-16.147 5.721-26.954 21.232-26.869 38.777.34 61.367.17 122.733.085 184.1 0 34.666 29.708 40.515 43.906 40.472 21.36-.085 42.337-17.29 41.913-41.998-.55-30.344-.127-60.73-.127-91.075zm2.925-196.898c-.043-25.597-20.47-45.982-46.11-45.982-25.682 0-46.194 20.554-46.152 46.237.043 25.385 20.766 46.067 46.194 46.067 25.598 0 46.068-20.597 46.068-46.322z"/></svg>