<svg xmlns="http://www.w3.org/2000/svg" width="512" height="512"><path d="M440.352 501.584L322.906 384.138c-32.19 21.062-70.661 33.414-112.173 33.414C97.54 417.552 6 325.807 6 212.614 6 99.636 97.53 7.892 210.733 7.892c113 0 204.712 91.744 204.712 204.722 0 39.514-11.127 76.332-30.374 107.522L503.355 438.4c6.261 6.09 1.01 21.276-11.557 33.81l-17.614 17.657c-12.567 12.534-27.753 17.787-33.832 11.718zm-92.937-288.97c0-75.537-61.166-136.692-136.693-136.692-75.537 0-136.886 61.155-136.886 136.692s61.35 136.887 136.886 136.887c75.527 0 136.693-61.339 136.693-136.887z"/></svg>