<svg xmlns="http://www.w3.org/2000/svg" version="1.0" width="512" height="512"><path d="M241.318 10.981c-18.833 4.63-34.93 20.306-39.874 38.928-1.684 6.312-1.894 20.2-.316 26.933 3.051 13.361 14.414 27.985 26.828 34.403 16.413 8.627 35.771 8.838 51.342.526 7.47-3.893 19.674-16.307 23.04-23.356 13.467-27.986 2.525-60.18-25.04-73.225-11.782-5.681-24.092-7.05-35.98-4.209zM105.81 64.953c-16.518 2.315-30.827 11.363-39.664 24.935-11.152 17.254-11.152 40.926 0 58.075 10.626 16.307 27.038 25.04 46.502 24.934 14.834-.105 27.144-5.366 37.875-16.097 13.15-13.15 18.517-32.088 14.203-50.395-3.156-13.466-13.256-27.249-24.83-33.982-9.363-5.47-24.618-8.837-34.087-7.47zm284.483.316c-21.568 3.367-39.559 19.99-44.609 41.136-4.313 18.307 1.052 37.244 14.203 50.395 10.732 10.731 23.041 15.992 37.875 16.097 19.464.105 35.876-8.627 46.503-24.934 11.152-17.15 11.152-40.821 0-58.075-4.735-7.26-13.362-15.36-20.2-18.833-10.206-5.155-23.252-7.364-33.772-5.786zM45.63 203.618c-23.987 5.26-42.399 28.301-42.399 53.235 0 23.567 16.518 45.03 39.874 51.868 6.523 1.894 20.305 2.21 27.46.526 12.414-2.84 25.565-12.204 32.825-23.461 5.68-8.838 8.206-17.78 8.206-28.933 0-16.202-5.26-28.511-16.834-39.453-13.677-12.835-30.93-17.675-49.132-13.782zm396.74 1.052c-19.252 4.208-35.244 19.148-40.82 38.296-2.42 8.206-2.21 22.41.42 30.826 5.366 17.464 21.463 32.51 38.928 36.507 7.154 1.684 20.936 1.368 27.46-.526 23.355-6.838 39.873-28.3 39.873-51.868 0-25.144-18.411-48.08-42.82-53.235-8.627-1.894-14.518-1.894-23.04 0zM104.02 340.915c-31.983 5.681-52.393 36.402-44.502 66.807 6.417 24.514 27.249 40.61 52.604 40.716 30.51.105 54.182-23.357 54.182-53.867 0-18.937-8.837-35.245-24.619-45.45-10.626-6.838-26.197-10.205-37.664-8.206zm281.223.631c-25.566 6.839-42.925 31.037-40.716 56.918 3.156 38.927 45.24 61.652 79.748 43.24 12.415-6.628 21.042-16.833 25.881-30.72 2.315-6.629 2.525-8.628 2.104-19.043-.63-13.467-2.63-19.464-9.89-29.669-4.839-6.838-12.309-13.151-20.094-17.044-10.205-5.155-25.986-6.733-37.033-3.682zm-143.189 54.708c-29.88 7.891-47.133 38.927-38.085 68.386 8.311 27.144 36.507 43.24 64.282 36.718 27.354-6.523 45.87-33.983 41.242-61.232-3.683-21.041-19.57-38.506-40.19-43.977-7.154-1.999-19.78-1.894-27.249.105z"/></svg>