<svg xmlns="http://www.w3.org/2000/svg" xmlns:xlink="http://www.w3.org/1999/xlink" width="512" height="512"><g transform="translate(43.554 6) scale(3.0408)"><use xlink:href="#f1V5RF5Vqz" width="100%" height="100%"/><use xlink:href="#f1V5RF5Vqz" width="100%" height="100%" fill-opacity="0" stroke="#000" stroke-opacity="0"/></g><use xlink:href="#c8ppa0KqL" width="100%" height="100%" transform="translate(43.554 6) scale(3.0408)"/><g transform="translate(43.554 6) scale(3.0408)"><use xlink:href="#f1V5RF5Vqz" width="100%" height="100%"/><use xlink:href="#f1V5RF5Vqz" width="100%" height="100%" fill-opacity="0" stroke="#000" stroke-opacity="0"/></g><use xlink:href="#c8ppa0KqL" width="100%" height="100%" transform="translate(43.554 6) scale(3.0408)"/><g transform="translate(43.554 6) scale(3.0408)"><use xlink:href="#f1V5RF5Vqz" width="100%" height="100%"/><use xlink:href="#f1V5RF5Vqz" width="100%" height="100%" fill-opacity="0" stroke="#000" stroke-opacity="0"/></g><use xlink:href="#c8ppa0KqL" width="100%" height="100%" transform="translate(43.554 6) scale(3.0408)"/><g transform="translate(45.723 6) scale(3.0408)"><use xlink:href="#f1V5RF5Vqz" width="100%" height="100%"/><use xlink:href="#f1V5RF5Vqz" width="100%" height="100%" fill-opacity="0" stroke="#000" stroke-opacity="0"/><use xlink:href="#c8ppa0KqL" width="100%" height="100%"/></g><path class="fil0" d="M450.54 470.028c0-133.424-86.84-241.52-193.804-241.52-106.965 0-193.804 108.096-193.804 241.52 0 20.805 86.839 37.765 193.804 37.765s193.803-16.96 193.803-37.765zM256.735 7.793c58.344 0 105.608 47.264 105.608 105.609 0 58.344-47.264 105.608-105.608 105.608-58.345 0-105.609-47.264-105.609-105.608 0-58.345 47.264-105.609 105.609-105.609z" clip-rule="evenodd" fill-rule="evenodd" image-rendering="optimizeQuality" shape-rendering="geometricPrecision" text-rendering="geometricPrecision"/></svg>