<svg version="1.1" id="Vrstva_1" xmlns="http://www.w3.org/2000/svg" x="0" y="0" viewBox="-1438.9 -0.1 512 512" xml:space="preserve"><style>.st1{fill:#444}</style><path d="M-993.5 127.9h-382.9c-31.7 0-31.7 0-31.7 36v285.6c0 33.9 0 31.7 31.7 31.7h382.9c31.7 0 31.7 2.1 31.7-31.7V163.9c0-33.8 0-36-31.7-36zm-33.8 258.2h-61.4v63.5h-29.6v-63.5h-133.3v63.5h-27.5v-63.5h-65.6v-29.6h65.6v-65.6h-63.5v-29.6h63.5v-63.5h29.6v63.5h131.2v-63.5h29.6v63.5h61.4v29.6h-61.4v65.6h61.4v29.6z" fill="none" transform="translate(1)"/><path class="st1" d="M-1088.7 290.9h61.4v-29.6h-61.4v-63.5h-29.6v63.5h-133.3v-63.5h-27.5v63.5h-63.5v29.6h63.5v65.6h-65.6v29.6h65.6v63.5h29.6v-63.5h131.2v63.5h29.6v-63.5h61.4v-29.6h-61.4v-65.6zm-31.7 65.5h-129.1v-65.6h129.1v65.6z" transform="translate(1)"/><path class="st1" d="M-1001.9 37h-57.1v29.6h-31.7V37h-190.4v29.6h-31.7V37h-55c-40.2 0-71.9 31.7-71.9 71.9v327.9c0 40.2 31.7 71.9 71.9 71.9h368.1c40.2 0 71.9-31.7 71.9-71.9V108.9c-2.2-40.2-34-71.9-74.1-71.9zm40.1 412.5c0 33.9 0 31.7-31.7 31.7h-382.9c-31.7 0-31.7 2.1-31.7-31.7V163.9h446.4v285.6h-.1zM-1313 3.1h31.7v31.7h-31.7zm224.3 0h31.7v31.7h-31.7z" transform="translate(1)"/></svg>