<svg xmlns="http://www.w3.org/2000/svg" width="512" height="512"><path d="M209.44 337.059c0-25.504 20.896-46.4 46.4-46.4 25.504 0 46.4 20.896 46.4 46.4 0 25.504-20.896 46.4-46.4 46.4-25.504 0-46.4-20.896-46.4-46.4zM256 95.17l69.824 102.4H186.176zm19.328-50.24A23.104 23.104 0 0 0 256 35.139a22.72 22.72 0 0 0-19.328 10.016L134.752 197.57H23.264A23.36 23.36 0 0 0 0 220.867c0 2.08.224 4.16.96 6.272l59.072 215.744c5.376 19.52 23.296 33.984 44.704 33.984h302.528c21.44 0 39.36-14.432 44.928-33.984l59.104-215.744.704-6.272a23.36 23.36 0 0 0-23.264-23.296H377.248z" fill-opacity=".65"/></svg>