<svg xmlns="http://www.w3.org/2000/svg" width="512" height="512"><path d="M221.375 291.063L189.813 259.5l-94.688 94.688 94.688 94.687 31.562-31.562-63.125-63.125 63.125-63.125zm63.125 126.25l31.563 31.562 94.687-94.687-94.687-94.688-31.563 31.563 63.125 63.125-63.125 63.125zm161.479-311.961L375.52 34.897C360.18 19.554 329.871 7 308.171 7H71.454C49.753 7 32 24.754 32 46.453v426.094C32 494.247 49.754 512 71.453 512h362.969c21.7 0 39.453-17.754 39.453-39.453V172.703c0-21.7-12.555-52.008-27.896-67.351zM423.66 127.67c1.543 1.544 3.082 3.44 4.576 5.58h-80.612V52.64c2.14 1.494 4.036 3.032 5.579 4.576l70.457 70.454zm18.652 344.877c0 4.277-3.614 7.89-7.891 7.89H71.453c-4.277 0-7.89-3.613-7.89-7.89V46.453c0-4.277 3.613-7.89 7.89-7.89h236.719c2.383 0 5.057.3 7.89.84v125.41h125.41c.54 2.833.84 5.506.84 7.89v299.844z"/></svg>