<svg xmlns="http://www.w3.org/2000/svg" viewBox="0 0 512 512"><path d="M214.7 107.5c2.4-18.8-16.7-46.2-30.4-63.6S149.5-3.9 120.6.4c-11.9 1.8-22 5.9-32 12.3l99.8 126.9c12.1-10.4 24.9-20.8 26.3-32.1zm116.4 258.6c-12.7 3.6-39.6 4.7-56-10.3-15.7-14.4-40.5-41.2-60.6-65.7-19.1-25.3-39.2-55.6-49.5-74.2-10.7-19.3-3-44.9 3.6-56.1 1.3-2.2 2.9-4.3 4.8-6.4L72.3 24.8c-1.9 1.6-3.9 3.3-5.8 5.1-18.7 16.7-46.9 56.1-25.1 127C57.5 209.5 92 271.5 138.9 334l-.3.2c2.3 3 4.7 5.7 7.1 8.7 2.2 3 4.4 5.9 6.8 8.9l.3-.2c49.8 60.3 102.1 108.6 149.7 137.1 64.2 38.3 109.8 21.1 130.9 7.3 2.2-1.5 4.3-2.9 6.4-4.3L338.6 363.1c-2.6 1.3-5 2.3-7.5 3zm117.5 13.7c-13.7-17.4-35.8-42.4-54.9-44.8-11.5-1.4-24.9 8.2-37.9 17.3l99.8 126.8c8.8-8.1 15.3-16.7 19.9-27.6 11.5-26.6-13.2-54.4-26.9-71.7z" fill-rule="evenodd" clip-rule="evenodd" fill="#32454e"/></svg>