<svg xmlns="http://www.w3.org/2000/svg" viewBox="0 0 512 512"><path d="M470.4 214.5h-.3V179C470.1 80.3 386.5.1 283.6.1h-53.5C127.3.1 43.7 80.3 43.7 179v35.7c-.8 0-1.6-.3-2.5-.3-22.7.1-41.2 19-41.2 42.4v86.5c0 23.4 18.5 42.3 41.2 42.3 2 0 4-.3 6-.6 18.6 55.7 86.2 98.7 170.1 106.7 8.9 11.8 32.1 20.3 59.5 20.3 35.1 0 63.6-13.8 63.6-30.9 0-17.1-28.5-30.9-63.6-30.9-27.2 0-50.2 8.3-59.3 20-75.8-7.6-136.3-45.4-150.8-93.8 9.5-7.7 15.8-19.6 15.8-33v-3.9h.2V177.2c0-82 59.3-137 147.5-137h53.5c87.9 0 144.8 53.9 144.8 137.4v162.1h.4v3.6c0 23.4 18.6 42.3 41.6 42.3s41.6-18.9 41.6-42.3v-86.5c-.1-23.4-18.7-42.3-41.7-42.3z" fill-rule="evenodd" clip-rule="evenodd" fill="#32454e"/></svg>